<svg xmlns="http://www.w3.org/2000/svg" version="1.1" xmlns:xlink="http://www.w3.org/1999/xlink" xmlns:svgjs="http://svgjs.dev/svgjs" viewBox="0 0 800 800" opacity="0.5"><defs><symbol id="bbburst-shape-1" viewBox="0 0 194 167"><path d="m97 0 96.129 166.5H.871L97 0Z"></path></symbol><symbol id="bbburst-shape-4" viewBox="0 0 149 143"><path d="M71.647 2.781c.898-2.764 4.808-2.764 5.706 0l15.445 47.534a3 3 0 0 0 2.853 2.073h49.98c2.906 0 4.115 3.719 1.764 5.427L106.96 87.193a2.999 2.999 0 0 0-1.09 3.354l15.445 47.534c.898 2.764-2.266 5.062-4.617 3.354l-40.435-29.378a3 3 0 0 0-3.526 0l-40.435 29.378c-2.351 1.708-5.515-.59-4.617-3.354L43.13 90.547a3 3 0 0 0-1.09-3.354L1.605 57.815c-2.35-1.708-1.142-5.427 1.764-5.427h49.98a3 3 0 0 0 2.853-2.073L71.647 2.781Z"></path></symbol><symbol id="bbburst-shape-10" viewBox="0 0 145 145"><circle cx="72.5" cy="72.5" r="61.5" fill="none" stroke-width="22"></circle></symbol><symbol id="bbburst-shape-11" viewBox="0 0 194 167"><path d="M10.398 161 97 11l86.603 150H10.397Z" stroke-width="11"></path></symbol><symbol id="bbburst-shape-13" viewBox="0 0 159 159"><path stroke-width="22" d="M11 11h137v137H11z"></path></symbol></defs><use xlink:href="#bbburst-shape-4" width="17.26477697957354" opacity="0.6939857129483101" transform="matrix(0.8805859486465579,0.47388647063008854,-0.47388647063008854,0.8805859486465579,448.32004522578234,10.412813368262618)" fill="#ff5c58"></use><use xlink:href="#bbburst-shape-1" width="43.254360561270744" opacity="0.32572890165147583" transform="matrix(0.9691811822120809,0.24634901267509296,-0.24634901267509296,0.9691811822120809,743.2923807543636,-139.4180321330364)" fill="#00a19d"></use><use xlink:href="#bbburst-shape-11" width="21.674808409398377" opacity="0.6061250947900259" transform="matrix(0.8494760100962069,-0.5276272436777967,0.5276272436777967,0.8494760100962069,356.358392655938,78.73855645270305)" fill="none" stroke="#ff5c58"></use><use xlink:href="#bbburst-shape-10" width="33.33575148261338" opacity="0.322327424431996" transform="matrix(0.8291836564872906,0.5589762640885271,-0.5589762640885271,0.8291836564872906,769.2989978787748,318.9067587245741)" fill="none" stroke="#ff5c58"></use><use xlink:href="#bbburst-shape-10" width="14.37552824315685" opacity="0.9455886445840376" transform="matrix(0.7864815815902206,-0.6176137318902043,0.6176137318902043,0.7864815815902206,125.32712831759383,79.04621647714708)" fill="none" stroke="#2c2891"></use><use xlink:href="#bbburst-shape-4" width="14.546289748909707" opacity="0.8672757606954196" transform="matrix(0.8960085030263613,-0.4440368931794511,0.4440368931794511,0.8960085030263613,250.22150784600086,93.6995592703405)" fill="#ff5c58"></use><use xlink:href="#bbburst-shape-1" width="40.11257243132482" opacity="0.1687163894688205" transform="matrix(0.7759926984056146,0.6307418901747155,-0.6307418901747155,0.7759926984056146,992.5318964912469,192.3970473970832)" fill="#00a19d"></use><use xlink:href="#bbburst-shape-11" width="46.73261869033712" opacity="0.1571008647298242" transform="matrix(0.9926824267710774,-0.12075429425028505,0.12075429425028505,0.9926824267710774,60.999363242853775,-263.8337922071172)" fill="none" stroke="#2c2891"></use><use xlink:href="#bbburst-shape-10" width="39.9267832126513" opacity="0.3270850688818471" transform="matrix(0.7599524253172238,0.6499787006160043,-0.6499787006160043,0.7599524253172238,840.6674138528995,-147.90874994470866)" fill="none" stroke="#ffa6d5"></use><use xlink:href="#bbburst-shape-11" width="37.370280189220885" opacity="0.19470273536066052" transform="matrix(0.9957695609834067,-0.09188569757537549,0.09188569757537549,0.9957695609834067,5.144332686826367,-123.93650859891454)" fill="none" stroke="#2c2891"></use><use xlink:href="#bbburst-shape-4" width="26.170920843419715" opacity="0.5092511061785723" transform="matrix(0.9297206270580678,0.36826560472402675,-0.36826560472402675,0.9297206270580678,641.0966902767499,217.06832879753034)" fill="#ff5c58"></use><use xlink:href="#bbburst-shape-10" width="23.823201237706265" opacity="0.5706783206116544" transform="matrix(0.8971582348118028,-0.44170929547539534,0.44170929547539534,0.8971582348118028,26.56001928850864,98.38173023020767)" fill="none" stroke="#2c2891"></use><use xlink:href="#bbburst-shape-4" width="31.298991287740776" opacity="0.5582966374362429" transform="matrix(0.974380160159411,-0.22490732199668537,0.22490732199668537,0.974380160159411,108.46345062516531,-55.40537023626547)" fill="#ffbd9b"></use><use xlink:href="#bbburst-shape-10" width="36.50686072260506" opacity="0.38662531547190715" transform="matrix(0.9823167802592124,-0.18722644904279456,0.18722644904279456,0.9823167802592124,45.53717571003227,-77.4293664968472)" fill="none" stroke="#ffa6d5"></use><use xlink:href="#bbburst-shape-11" width="19.49462063486997" opacity="0.8431325970455757" transform="matrix(0.7390571809472386,0.6736426970511301,-0.6736426970511301,0.7390571809472386,620.227752529883,154.21676635881033)" fill="none" stroke="#2c2891"></use><use xlink:href="#bbburst-shape-1" width="30.274657871453954" opacity="0.5188259785254077" transform="matrix(0.9956405941597388,0.09327275733697518,-0.09327275733697518,0.9956405941597388,298.0914461406917,-177.0359151142343)" fill="#2c2891"></use><use xlink:href="#bbburst-shape-10" width="25.641910606097348" opacity="0.7621479122191498" transform="matrix(0.9838029256489264,0.17925346156940192,-0.17925346156940192,0.9838029256489264,505.5462792928269,100.60570199343658)" fill="none" stroke="#ff5c58"></use><use xlink:href="#bbburst-shape-1" width="22.684381560905653" opacity="0.5297780209820585" transform="matrix(0.999760411672405,-0.02188879285440933,0.02188879285440933,0.999760411672405,385.6252998789326,-211.14924247467323)" fill="#00a19d"></use><use xlink:href="#bbburst-shape-10" width="36.92447600353492" opacity="0.15128523670883776" transform="matrix(0.863937084556337,0.5035997556872884,-0.5035997556872884,0.863937084556337,338.0385843198692,336.04354366353334)" fill="none" stroke="#00a19d"></use><use xlink:href="#bbburst-shape-4" width="33.25879045579954" opacity="0.1873157891584183" transform="matrix(0.9972708669641752,-0.07382965464176489,0.07382965464176489,0.9972708669641752,719.0403795702831,-17.769233937782417)" fill="#ff5c58"></use><use xlink:href="#bbburst-shape-4" width="25.365330195673526" opacity="0.4795905524155516" transform="matrix(0.8906393445683533,0.4547104110385577,-0.4547104110385577,0.8906393445683533,802.9780821970153,9.145391654415903)" fill="#ffbd9b"></use><use xlink:href="#bbburst-shape-13" width="16.962170520306913" opacity="0.8626720934120342" transform="matrix(0.738588197610083,-0.674156861828973,0.674156861828973,0.738588197610083,63.71959377394859,97.00155311655618)" fill="none" stroke="#2c2891"></use><use xlink:href="#bbburst-shape-11" width="30.344608392388263" opacity="0.25877745287128584" transform="matrix(0.9217701455676198,0.3877367647518725,-0.3877367647518725,0.9217701455676198,586.7423661711988,355.483412348334)" fill="none" stroke="#ffa6d5"></use><use xlink:href="#bbburst-shape-11" width="46.107997242013184" opacity="0.11136380043201766" transform="matrix(0.8416063967486118,-0.5400913561165538,0.5400913561165538,0.8416063967486118,365.7172151469877,-270.1128941582409)" fill="none" stroke="#2c2891"></use><use xlink:href="#bbburst-shape-1" width="17.02361442826347" opacity="0.7499567682090312" transform="matrix(0.8836193520030883,-0.4682059811297186,0.4682059811297186,0.8836193520030883,155.66013263048796,151.58051532018686)" fill="#ffa6d5"></use><use xlink:href="#bbburst-shape-4" width="29.735994762134887" opacity="0.2793074464366395" transform="matrix(0.9992506662986559,0.038705373033886,-0.038705373033886,0.9992506662986559,268.1346821397358,295.76571416111307)" fill="#2c2891"></use><use xlink:href="#bbburst-shape-11" width="26.418903483996033" opacity="0.6465654527851393" transform="matrix(0.9674553588459144,0.253041752760929,-0.253041752760929,0.9674553588459144,631.5081991255796,78.99365208886093)" fill="none" stroke="#ffa6d5"></use><use xlink:href="#bbburst-shape-13" width="16.95454363159481" opacity="0.6610591975251291" transform="matrix(0.9322898488205567,0.36171209239689994,-0.36171209239689994,0.9322898488205567,464.09459893721987,-110.07170416832247)" fill="none" stroke="#ffbd9b"></use><use xlink:href="#bbburst-shape-10" width="36.87867055009629" opacity="0.32476252569870867" transform="matrix(0.7308065668534132,0.6825846188158123,-0.6825846188158123,0.7308065668534132,438.1461597746396,303.19112469790986)" fill="none" stroke="#2c2891"></use><use xlink:href="#bbburst-shape-13" width="42.315509343801786" opacity="-0.08349702614067778" transform="matrix(0.8289441102266951,-0.5593314420989336,0.5593314420989336,0.8289441102266951,502.88177446443547,425.6358017927414)" fill="none" stroke="#ffa6d5"></use><use xlink:href="#bbburst-shape-10" width="34.64364469432935" opacity="0.45281064450229647" transform="matrix(0.9927813534822635,0.1199382515210429,-0.1199382515210429,0.9927813534822635,476.5090608178611,242.76134985889854)" fill="none" stroke="#2c2891"></use><use xlink:href="#bbburst-shape-4" width="21.03908153915889" opacity="0.7114080351705967" transform="matrix(0.9293826195937944,-0.36911779474441014,0.36911779474441014,0.9293826195937944,117.89167804829165,68.4422677104576)" fill="#2c2891"></use><use xlink:href="#bbburst-shape-13" width="40.01283803036157" opacity="0.08891267483992316" transform="matrix(0.9982462689220596,-0.05919785961660259,0.05919785961660259,0.9982462689220596,594.7424050926828,335.4425196075733)" fill="none" stroke="#2c2891"></use><use xlink:href="#bbburst-shape-11" width="36.58610191536893" opacity="0.2366990741661985" transform="matrix(0.96996483849994,0.24324516865456003,-0.24324516865456003,0.96996483849994,502.5665148769175,-335.61431289161453)" fill="none" stroke="#ffa6d5"></use><use xlink:href="#bbburst-shape-10" width="25.20630171725485" opacity="0.08161142472993077" transform="matrix(0.8078097441549165,-0.5894433113102298,0.5894433113102298,0.8078097441549165,-39.033609184575994,449.70612549754946)" fill="none" stroke="#00a19d"></use><use xlink:href="#bbburst-shape-11" width="18.377101083009265" opacity="0.7161750190440402" transform="matrix(0.7292847098024877,-0.6842103565777862,0.6842103565777862,0.7292847098024877,195.00402224117823,11.421080527639447)" fill="none" stroke="#2c2891"></use><use xlink:href="#bbburst-shape-13" width="32.06656990077852" opacity="0.3102675829210957" transform="matrix(0.8972760158273038,-0.44146998926436676,0.44146998926436676,0.8972760158273038,-101.14724860330647,59.491453437573)" fill="none" stroke="#ffa6d5"></use><use xlink:href="#bbburst-shape-4" width="19.897273208146476" opacity="0.6272789958257132" transform="matrix(0.991444004768542,-0.1305326986180676,0.1305326986180676,0.991444004768542,195.2089688775517,92.84921412302839)" fill="#ff5c58"></use><use xlink:href="#bbburst-shape-4" width="22.2897166413269" opacity="0.7509452117103356" transform="matrix(0.7476544537545424,0.6640879593705918,-0.6640879593705918,0.7476544537545424,769.3572136802521,94.77461426996592)" fill="#ffa6d5"></use><use xlink:href="#bbburst-shape-10" width="25.568426599484393" opacity="0.47808274916738314" transform="matrix(0.8558566122393788,-0.5172131661956543,0.5172131661956543,0.8558566122393788,401.05340455090806,149.42826800503138)" fill="none" stroke="#2c2891"></use><use xlink:href="#bbburst-shape-11" width="11.251604571157921" opacity="0.9729988392843397" transform="matrix(0.9896871451040298,0.1432457846354827,-0.1432457846354827,0.9896871451040298,459.73029147489683,12.339339707188515)" fill="none" stroke="#ffbd9b"></use><use xlink:href="#bbburst-shape-1" width="38.08862505555716" opacity="0.48202285524599464" transform="matrix(0.7819434790139717,0.623349336750691,-0.623349336750691,0.7819434790139717,808.6707651197539,230.2013639798418)" fill="#00a19d"></use><use xlink:href="#bbburst-shape-1" width="32.018347237810225" opacity="0.49164530821247787" transform="matrix(0.7488904971666209,-0.6626937627996293,0.6626937627996293,0.7488904971666209,251.5883853645961,-78.08772059984355)" fill="#00a19d"></use><use xlink:href="#bbburst-shape-10" width="13.735125781373505" opacity="0.857133988353959" transform="matrix(0.8804142274281436,-0.47420542820818173,0.47420542820818173,0.8804142274281436,264.361421449956,28.23547179277449)" fill="none" stroke="#ffa6d5"></use><use xlink:href="#bbburst-shape-1" width="31.71696979794231" opacity="0.42776710347644575" transform="matrix(0.8695538319111575,-0.4938381652005264,0.4938381652005264,0.8695538319111575,-61.9563622221234,119.0588241646625)" fill="#ff5c58"></use><use xlink:href="#bbburst-shape-11" width="33.45198273815524" opacity="0.18837584910584004" transform="matrix(0.9705074031930142,-0.2410713179695009,0.2410713179695009,0.9705074031930142,237.21571180585593,377.2003776565077)" fill="none" stroke="#ffa6d5"></use><use xlink:href="#bbburst-shape-11" width="16.42192237785963" opacity="0.7724072733036365" transform="matrix(0.9607479309398774,-0.27742280583027884,0.27742280583027884,0.9607479309398774,178.68702282215506,15.739659053528271)" fill="none" stroke="#2c2891"></use><use xlink:href="#bbburst-shape-4" width="33.42856747261249" opacity="0.4645535480230858" transform="matrix(0.9983313512387123,-0.05774524338754557,0.05774524338754557,0.9983313512387123,235.01456852374181,207.5309351426905)" fill="#ff5c58"></use><use xlink:href="#bbburst-shape-4" width="30.691559991469546" opacity="0.12242471658918286" transform="matrix(0.9932663011350696,-0.11585359307961603,0.11585359307961603,0.9932663011350696,696.9836594060662,-160.983922999141)" fill="#2c2891"></use><use xlink:href="#bbburst-shape-10" width="27.56664271778702" opacity="0.6189354277241176" transform="matrix(0.9863313126437702,0.164774214300713,-0.164774214300713,0.9863313126437702,613.8932645174125,-54.22718901086864)" fill="none" stroke="#2c2891"></use><use xlink:href="#bbburst-shape-1" width="36.53500034701216" opacity="0.34100167312458063" transform="matrix(0.8366450562735901,-0.5477454242738695,0.5477454242738695,0.8366450562735901,456.4550373453101,133.443482471268)" fill="#ffa6d5"></use><use xlink:href="#bbburst-shape-11" width="28.71457148253148" opacity="0.4847372125183219" transform="matrix(0.8129490470276648,0.5823348237370076,-0.5823348237370076,0.8129490470276648,390.21094928326033,49.46766717345571)" fill="none" stroke="#ff5c58"></use><use xlink:href="#bbburst-shape-10" width="11.068694316170554" opacity="0.9386484163368977" transform="matrix(0.9325448352937247,-0.3610541928395238,0.3610541928395238,0.9325448352937247,265.1066486690933,5.60429024541105)" fill="none" stroke="#00a19d"></use><use xlink:href="#bbburst-shape-11" width="39.72958781171076" opacity="0.28636988980883205" transform="matrix(0.718121685442048,-0.6959175561069517,0.6959175561069517,0.718121685442048,362.8928915169589,320.24758174499044)" fill="none" stroke="#ff5c58"></use><use xlink:href="#bbburst-shape-10" width="25.78828382822921" opacity="0.1555087139171537" transform="matrix(0.8658647411749131,-0.5002781726100998,0.5002781726100998,0.8658647411749131,289.7445551223416,-306.2432885056827)" fill="none" stroke="#00a19d"></use><use xlink:href="#bbburst-shape-4" width="11.080528455003908" opacity="0.8767082776617018" transform="matrix(0.8810409160090735,-0.47304006629237305,0.47304006629237305,0.8810409160090735,213.1805252591043,-4.789242537761083)" fill="#ffa6d5"></use><use xlink:href="#bbburst-shape-10" width="11.713071797901895" opacity="0.8308280847438979" transform="matrix(0.9664251127414247,-0.2569484412537359,0.2569484412537359,0.9664251127414247,260.70838181326064,-54.66053886037281)" fill="none" stroke="#2c2891"></use><use xlink:href="#bbburst-shape-1" width="25.46825580918548" opacity="-0.06798677295468303" transform="matrix(0.886993700094252,0.46178152409240886,-0.46178152409240886,0.886993700094252,939.3368354773118,-272.1974520323593)" fill="#00a19d"></use><use xlink:href="#bbburst-shape-10" width="25.16265703755655" opacity="0.4300665776252899" transform="matrix(0.9506874111255692,-0.3101506832611575,0.3101506832611575,0.9506874111255692,328.2937662959824,-224.64783005881486)" fill="none" stroke="#ffa6d5"></use><use xlink:href="#bbburst-shape-11" width="28.299191961273852" opacity="0.4997691671822547" transform="matrix(0.8786002314963229,0.4775579893736548,-0.4775579893736548,0.8786002314963229,399.1744264896413,-94.23362193284532)" fill="none" stroke="#ff5c58"></use><use xlink:href="#bbburst-shape-4" width="19.15113087165713" opacity="0.5909464324153679" transform="matrix(0.9804800498659779,-0.19661859478393565,0.19661859478393565,0.9804800498659779,265.13946322397464,-168.31028364793775)" fill="#00a19d"></use><use xlink:href="#bbburst-shape-4" width="20.98278759914418" opacity="0.7379081085502492" transform="matrix(0.7539690359584891,-0.6569099579210431,0.6569099579210431,0.7539690359584891,94.19354053668428,-7.264651570791784)" fill="#ffa6d5"></use><use xlink:href="#bbburst-shape-4" width="23.257701821847082" opacity="0.48578740752885785" transform="matrix(0.7481913006883013,0.6634830650245325,-0.6634830650245325,0.7481913006883013,849.9584847256867,-34.203805916386386)" fill="#2c2891"></use><use xlink:href="#bbburst-shape-4" width="30.237368234004478" opacity="0.22657650268573726" transform="matrix(0.9822211528984941,-0.1877274801374405,0.1877274801374405,0.9822211528984941,177.62744341663995,-311.8815616009175)" fill="#2c2891"></use><use xlink:href="#bbburst-shape-11" width="22.357724380912913" opacity="0.6083631200198089" transform="matrix(0.9183252212963661,-0.3958267145241467,0.3958267145241467,0.9183252212963661,115.13362935191711,169.3713892733267)" fill="none" stroke="#2c2891"></use><use xlink:href="#bbburst-shape-4" width="39.90142705420956" opacity="0.15707510267101266" transform="matrix(0.9079007892861417,-0.41918511043881423,0.41918511043881423,0.9079007892861417,-149.55729541430784,152.6654518358731)" fill="#2c2891"></use><use xlink:href="#bbburst-shape-1" width="27.747822991600863" opacity="0.6222652966718014" transform="matrix(0.9054159603598896,-0.42452554543346266,0.42452554543346266,0.9054159603598896,341.60521263208034,-72.54920230408379)" fill="#ffa6d5"></use><use xlink:href="#bbburst-shape-1" width="13.600259887497069" opacity="0.7856453682383799" transform="matrix(0.9680878107141686,-0.25061123427860965,0.25061123427860965,0.9680878107141686,206.52612853516536,-27.894634565194224)" fill="#ffbd9b"></use><use xlink:href="#bbburst-shape-10" width="21.28898661510367" opacity="0.6282779902294391" transform="matrix(0.7576343379821691,-0.6526792550022718,0.6526792550022718,0.7576343379821691,-36.390765763367284,101.27632922899812)" fill="none" stroke="#00a19d"></use><use xlink:href="#bbburst-shape-10" width="36.11816114173348" opacity="0.3943806183970724" transform="matrix(0.7673856650849272,0.6411858085002848,-0.6411858085002848,0.7673856650849272,598.2654348143344,350.3622545363558)" fill="none" stroke="#ff5c58"></use><use xlink:href="#bbburst-shape-4" width="13.785861516362667" opacity="0.8248406412200868" transform="matrix(0.9832498082811431,-0.1822630366121868,0.1822630366121868,0.9832498082811431,246.40808829406382,35.35406388581174)" fill="#00a19d"></use><use xlink:href="#bbburst-shape-10" width="14.900087518351262" opacity="0.6679459421555793" transform="matrix(0.8044046546975333,0.594081771729231,-0.594081771729231,0.8044046546975333,503.08802010145394,-2.3590245721742917)" fill="none" stroke="#ffbd9b"></use><use xlink:href="#bbburst-shape-11" width="40.62556136541698" opacity="0.29690579445722864" transform="matrix(0.815137119837711,0.5792680518228857,-0.5792680518228857,0.815137119837711,741.9870605029984,-228.23645969692416)" fill="none" stroke="#ffa6d5"></use><use xlink:href="#bbburst-shape-11" width="35.62030437863003" opacity="0.16024702725419782" transform="matrix(0.818089204687911,0.5750913433299976,-0.5750913433299976,0.818089204687911,899.7326285371912,-187.13787082359718)" fill="none" stroke="#2c2891"></use><use xlink:href="#bbburst-shape-10" width="16.296755054348196" opacity="0.9093930485711044" transform="matrix(0.9979428767279152,0.06410939703361011,-0.06410939703361011,0.9979428767279152,381.2944323673395,19.02816770045996)" fill="none" stroke="#2c2891"></use><use xlink:href="#bbburst-shape-1" width="26.1632269024482" opacity="0.31780607650833914" transform="matrix(0.9895371501153495,-0.14427830239364556,0.14427830239364556,0.9895371501153495,630.0859420208379,-55.52495112746902)" fill="#2c2891"></use><use xlink:href="#bbburst-shape-10" width="50.95276186177096" opacity="0.08002981966474931" transform="matrix(0.9916202902194666,0.129186686717559,-0.129186686717559,0.9916202902194666,81.89252333195154,229.60671669736195)" fill="none" stroke="#00a19d"></use><use xlink:href="#bbburst-shape-4" width="18.022743454458364" opacity="0.7112839506220323" transform="matrix(0.9966329518997369,0.08199243372175778,-0.08199243372175778,0.9966329518997369,419.06448042289765,130.4596149810513)" fill="#00a19d"></use><use xlink:href="#bbburst-shape-13" width="18.62756100345436" opacity="0.747415553008413" transform="matrix(0.966906382324742,-0.25513143244155495,0.25513143244155495,0.966906382324742,389.34729416871176,-37.659431949194186)" fill="none" stroke="#2c2891"></use><use xlink:href="#bbburst-shape-1" width="36.605386799434605" opacity="0.07030652317705921" transform="matrix(0.9960438527171853,-0.08886306017860261,0.08886306017860261,0.9960438527171853,-9.242505411578712,-217.3502211533162)" fill="#00a19d"></use><use xlink:href="#bbburst-shape-1" width="11.591571649679032" opacity="0.9125142749079151" transform="matrix(0.9259757299444166,0.37758303398577775,-0.37758303398577775,0.9259757299444166,540.4632094673575,66.45910953926261)" fill="#ff5c58"></use><use xlink:href="#bbburst-shape-11" width="23.818903949884344" opacity="0.7815575842725401" transform="matrix(0.9653411290529943,0.26099138790138293,-0.26099138790138293,0.9653411290529943,577.2075270445176,61.1386733665384)" fill="none" stroke="#2c2891"></use><use xlink:href="#bbburst-shape-10" width="20.8503995476731" opacity="0.6384348182954458" transform="matrix(0.9644773003292648,-0.2641657380312087,0.2641657380312087,0.9644773003292648,169.79285459809626,-98.64688578504467)" fill="none" stroke="#2c2891"></use><use xlink:href="#bbburst-shape-1" width="30.516990586726173" opacity="0.18250357217571544" transform="matrix(0.9988086365412746,0.048798643122120684,-0.048798643122120684,0.9988086365412746,37.682195659357134,-30.87062453379889)" fill="#00a19d"></use><use xlink:href="#bbburst-shape-13" width="21.88590411441008" opacity="0.745936444590308" transform="matrix(0.8458560022929438,0.5334113078900742,-0.5334113078900742,0.8458560022929438,516.2217401953437,128.94348663896875)" fill="none" stroke="#ffa6d5"></use><use xlink:href="#bbburst-shape-4" width="16.60321514039876" opacity="0.8844325042549891" transform="matrix(0.8681553860688802,0.4962924799345578,-0.4962924799345578,0.8681553860688802,641.930320026888,60.52095451268946)" fill="#ffa6d5"></use><use xlink:href="#bbburst-shape-13" width="32.582158084755875" opacity="0.4409724428145848" transform="matrix(0.7630292684331687,-0.6463639342617621,0.6463639342617621,0.7630292684331687,44.13879818769158,-131.4900283007046)" fill="none" stroke="#2c2891"></use><use xlink:href="#bbburst-shape-10" width="45.998590302720416" opacity="-0.07916489853195907" transform="matrix(0.9637911535797647,0.2666582312275139,-0.2666582312275139,0.9637911535797647,145.2011038146313,355.7830525752407)" fill="none" stroke="#00a19d"></use><use xlink:href="#bbburst-shape-13" width="34.81794725557501" opacity="0.06726267892128446" transform="matrix(0.9969240950987417,0.07837313705317038,-0.07837313705317038,0.9969240950987417,193.79674792062434,-357.4686294024787)" fill="none" stroke="#2c2891"></use><use xlink:href="#bbburst-shape-1" width="42.76544880970826" opacity="-0.08034747082449378" transform="matrix(0.9535613428170211,-0.3011988802851025,0.3011988802851025,0.9535613428170211,-85.2610538709441,-318.0508611905042)" fill="#2c2891"></use><use xlink:href="#bbburst-shape-11" width="14.316810875188585" opacity="0.7459478724116695" transform="matrix(0.9344985889669465,-0.35596683443656096,0.35596683443656096,0.9344985889669465,285.4927251482528,-80.37457137454618)" fill="none" stroke="#2c2891"></use><use xlink:href="#bbburst-shape-4" width="27.444739352431675" opacity="0.6290050006650507" transform="matrix(0.7621889484222907,0.6473546222148435,-0.6473546222148435,0.7621889484222907,691.0437648547398,247.68736060813706)" fill="#2c2891"></use><use xlink:href="#bbburst-shape-10" width="29.460784732347744" opacity="0.33680742282859444" transform="matrix(0.9741342118352888,-0.22597021337344614,0.22597021337344614,0.9741342118352888,122.67378763396593,-229.79490067274082)" fill="none" stroke="#ffa6d5"></use><use xlink:href="#bbburst-shape-4" width="29.571988917377993" opacity="-0.03402721282652177" transform="matrix(0.7667825842868646,-0.6419069001298844,0.6419069001298844,0.7667825842868646,428.53550581342955,-255.71593353149996)" fill="#2c2891"></use><use xlink:href="#bbburst-shape-10" width="39.414843986616965" opacity="0.2986252045025207" transform="matrix(0.9220020165565064,0.38718507391909596,-0.38718507391909596,0.9220020165565064,250.37977351191205,156.36075197743787)" fill="none" stroke="#2c2891"></use><use xlink:href="#bbburst-shape-13" width="37.86531373870273" opacity="0.0721417776055272" transform="matrix(0.7206758863696412,0.6932721448358733,-0.6932721448358733,0.7206758863696412,1009.5733343758105,332.4494048445126)" fill="none" stroke="#ffa6d5"></use><use xlink:href="#bbburst-shape-11" width="28.72597496805064" opacity="0.5578484291991538" transform="matrix(0.7291138891326957,0.6843923850203151,-0.6843923850203151,0.7291138891326957,637.7219888131167,295.54090155391384)" fill="none" stroke="#ff5c58"></use><use xlink:href="#bbburst-shape-1" width="26.95386299079704" opacity="0.6543945355789376" transform="matrix(0.8192179969946549,0.5734822345984796,-0.5734822345984796,0.8192179969946549,720.0218488589517,182.28359169976198)" fill="#00a19d"></use><use xlink:href="#bbburst-shape-11" width="17.540542924934652" opacity="0.7643988948155416" transform="matrix(0.8446439332907908,0.5353285215221231,-0.5353285215221231,0.8446439332907908,535.3647340517402,-21.043934316886293)" fill="none" stroke="#ffbd9b"></use><use xlink:href="#bbburst-shape-10" width="20.628287011815825" opacity="0.6278709533478459" transform="matrix(0.7309863618732064,0.6823920711404652,-0.6823920711404652,0.7309863618732064,600.5873284376389,254.96689228936287)" fill="none" stroke="#ffa6d5"></use><use xlink:href="#bbburst-shape-10" width="25.847999984474576" opacity="0.1739403241793166" transform="matrix(0.9248134249643123,-0.3804209891761736,0.3804209891761736,0.9248134249643123,168.44996674152551,-330.56884102318503)" fill="none" stroke="#ffa6d5"></use><use xlink:href="#bbburst-shape-10" width="32.574749044979946" opacity="0.15316693050981278" transform="matrix(0.9249844353476012,0.3800049925523076,-0.3800049925523076,0.9249844353476012,667.1149055618212,381.96724867916697)" fill="none" stroke="#ffa6d5"></use><use xlink:href="#bbburst-shape-1" width="27.684151904684434" opacity="0.3726586295405877" transform="matrix(0.9440103635843765,0.3299157975079298,-0.3299157975079298,0.9440103635843765,489.86433334506853,-262.9449404974384)" fill="#ffbd9b"></use><use xlink:href="#bbburst-shape-10" width="23.079477323363065" opacity="0.6736855082810087" transform="matrix(0.9862480257975971,0.16527199281893573,-0.16527199281893573,0.9862480257975971,459.2157532050003,-143.17932811636464)" fill="none" stroke="#2c2891"></use><use xlink:href="#bbburst-shape-11" width="28.18051189321634" opacity="0.6051128328485168" transform="matrix(0.782157700414573,0.6230805178162667,-0.6230805178162667,0.782157700414573,701.9702292432571,-87.8801732551479)" fill="none" stroke="#ffbd9b"></use><use xlink:href="#bbburst-shape-10" width="16.540555804894343" opacity="0.8246430628061504" transform="matrix(0.991855734305019,-0.12736640972505806,0.12736640972505806,0.991855734305019,339.10362642547375,83.20234871467665)" fill="none" stroke="#ff5c58"></use><use xlink:href="#bbburst-shape-13" width="16.592155731458043" opacity="0.7952656852165563" transform="matrix(0.9557339670663987,-0.2942321943559608,0.2942321943559608,0.9557339670663987,274.51566790539346,-71.98294646972823)" fill="none" stroke="#00a19d"></use><use xlink:href="#bbburst-shape-10" width="28.20922408227275" opacity="0.47530224839068136" transform="matrix(0.8593628403619484,-0.51136631547751,0.51136631547751,0.8593628403619484,-12.76941199221929,194.9735774304387)" fill="none" stroke="#ff5c58"></use><use xlink:href="#bbburst-shape-10" width="10.044780667030297" opacity="0.8817742451238685" transform="matrix(0.7279748231099163,0.6856038629690515,-0.6856038629690515,0.7279748231099163,635.1715577506096,65.66440878737086)" fill="none" stroke="#2c2891"></use><use xlink:href="#bbburst-shape-13" width="15.093376222522505" opacity="0.826418551237062" transform="matrix(0.7475244991346528,0.6642342381972541,-0.6642342381972541,0.7475244991346528,707.5010421420059,33.9286366396114)" fill="none" stroke="#00a19d"></use><use xlink:href="#bbburst-shape-11" width="36.72966869973162" opacity="0.3277989630847641" transform="matrix(0.918957745595231,0.394356008969726,-0.394356008969726,0.918957745595231,298.70416348835215,-156.2789788098794)" fill="none" stroke="#2c2891"></use></svg>