<svg width="1314" height="728" viewBox="0 0 1314 728" fill="none" xmlns="http://www.w3.org/2000/svg">
<path d="M1313.83 316.852L1295.85 307.175L1286.17 325.148L1304.15 334.825L1313.83 316.852ZM1166.17 361.148L1184.15 370.825L1193.83 352.852L1175.85 343.175L1166.17 361.148ZM1299.28 318.605L1179.28 354.605L1180.72 359.395L1300.72 323.395L1299.28 318.605Z" fill="#202020"/>
<path d="M187.596 27.9194L202.919 41.4044L216.404 26.0806L201.081 12.5956L187.596 27.9194ZM404.404 14.0806L389.081 0.595557L375.596 15.9194L390.919 29.4044L404.404 14.0806ZM202.159 29.4949L390.159 17.4949L389.841 12.5051L201.841 24.5051L202.159 29.4949Z" fill="#202020"/>
<path d="M1019.79 576.794V597.206H1040.21V576.794H1019.79ZM1170.21 727.206V706.794H1149.79V727.206H1170.21ZM1028.23 588.768L1158.23 718.768L1161.77 715.232L1031.77 585.232L1028.23 588.768Z" fill="#202020"/>
<path d="M0.684919 472.847L16.8471 485.315L29.3151 469.153L13.1529 456.685L0.684919 472.847ZM215.315 445.153L199.153 432.685L186.685 448.847L202.847 461.315L215.315 445.153ZM15.3199 473.479L201.32 449.479L200.68 444.521L14.6801 468.521L15.3199 473.479Z" fill="#202020"/>
<path d="M609.794 137.097L630.097 139.206L632.206 118.903L611.903 116.794L609.794 137.097ZM717.206 49.9031L696.903 47.7937L694.794 68.0969L715.097 70.2063L717.206 49.9031ZM622.576 129.941L707.576 60.941L704.424 57.059L619.424 126.059L622.576 129.941Z" fill="#202020"/>
<path d="M1172.97 35.696L1174.7 56.0349L1195.03 54.304L1193.3 33.9651L1172.97 35.696ZM1297.03 140.304L1295.3 119.965L1274.97 121.696L1276.7 142.035L1297.03 140.304ZM1182.39 46.9113L1284.39 132.911L1287.61 129.089L1185.61 43.0887L1182.39 46.9113Z" fill="#202020"/>
<path d="M499.38 539.879L496.879 519.62L476.62 522.121L479.121 542.38L499.38 539.879ZM385.62 451.121L388.121 471.38L408.38 468.879L405.879 448.62L385.62 451.121ZM489.538 529.029L398.538 458.029L395.462 461.971L486.462 532.971L489.538 529.029Z" fill="#202020"/>
</svg>
