<svg xmlns="http://www.w3.org/2000/svg" version="1.1" xmlns:xlink="http://www.w3.org/1999/xlink" xmlns:svgjs="http://svgjs.com/svgjs" width="31.999998" height="31.999998"><svg width="31.999998" height="31.999998" viewBox="0 0 8.4666661 8.4666661" version="1.1" id="SvgjsSvg1008" xmlns="http://www.w3.org/2000/svg" xmlns:svg="http://www.w3.org/2000/svg">
  <defs id="SvgjsDefs1007"></defs>
  <g id="SvgjsG1006">
    <circle style="fill:#000000;stroke-width:0.254525" id="SvgjsCircle1005" cx="4.2175961" cy="4.2431569" r="4.2048154"></circle>
    <path style="fill:#1e5129;fill-opacity:1;stroke-width:0.0483046" d="M 14.587991,31.849455 C 11.746784,31.612368 8.8387608,30.518077 6.5642786,28.830126 5.5154204,28.051742 4.3015005,26.890922 3.5665654,25.96354 1.4431262,23.284067 0.24333685,20.119266 0.10557666,16.834155 0.0045543,14.425117 0.35114356,12.306694 1.1922371,10.192272 1.9812998,8.20865 3.0839849,6.5154798 4.5854249,4.9820414 7.1726171,2.339712 10.259245,0.80000547 14.008336,0.28159957 c 0.849551,-0.11747179 3.015854,-0.11738855 3.864368,1.483e-4 0.894351,0.12388639 1.92134,0.34242038 2.651004,0.56410974 5.467125,1.66104299 9.655813,6.16304799 10.897587,11.71273339 0.49792,2.225285 0.497866,4.733924 -1.45e-4,6.957076 -0.838609,3.743549 -3.033515,7.069193 -6.186853,9.374095 -3.019707,2.207225 -6.862249,3.275459 -10.646306,2.959693 z" id="SvgjsPath1004" transform="scale(0.26458333)"></path>
    <path style="fill:#1e5129;fill-opacity:1;stroke-width:0.0127806" d="M 3.7610693,8.3964874 C 2.9831732,8.302469 2.2383997,7.9953632 1.6514354,7.5265839 1.1089766,7.0933491 0.70979328,6.590036 0.43207508,5.9891442 0.24820189,5.5913027 0.13913274,5.2177883 0.07715025,4.7736812 0.04886593,4.5710228 0.04499124,3.9430774 0.07076245,3.7384531 0.11714596,3.3701664 0.20078305,3.0388599 0.33207465,2.7033325 0.54808995,2.1512864 0.84901883,1.6954549 1.2823046,1.2639735 1.9209853,0.62795247 2.6606876,0.25166147 3.5942527,0.08787167 3.7914665,0.05327138 3.8136933,0.05203022 4.2331153,0.05219695 4.7021703,0.0523834 4.7726444,0.05931605 5.1469277,0.14208971 5.771361,0.28018469 6.3469126,0.55854639 6.8659176,0.97346784 7.0473295,1.1184985 7.3477694,1.4186355 7.4907836,1.5977037 7.9855483,2.2171994 8.2785532,2.8986662 8.389244,3.6873306 8.421144,3.9146185 8.421133,4.5465293 8.389231,4.7736812 8.2952211,5.4429294 8.0696972,6.0347242 7.7026759,6.5752624 7.3642963,7.0736183 6.8987471,7.5162522 6.3904413,7.8229067 5.8701506,8.1367914 5.247349,8.3414239 4.6247706,8.4030493 4.4436467,8.4209775 3.9315107,8.4170881 3.7610754,8.3964876 Z" id="SvgjsPath1003"></path>
  </g>
  <g id="SvgjsG1002">
    <text xml:space="preserve" style="font-size:9.87778px;fill:#ffffff;fill-opacity:1;stroke-width:5;stroke-dasharray:none" x="0.97860485" y="7.7893343" id="SvgjsText1001" svgjs:data="{&quot;leading&quot;:&quot;1.3&quot;}"><tspan id="SvgjsTspan1000" style="font-style:normal;font-variant:normal;font-weight:normal;font-stretch:normal;font-size:9.87778px;font-family:'Bungee Hairline';-inkscape-font-specification:'Bungee Hairline';fill:#ffffff;fill-opacity:1;stroke-width:5;stroke-dasharray:none" x="0.97860485" y="7.7893343" svgjs:data="{&quot;leading&quot;:&quot;1.3&quot;}">C</tspan></text>
  </g>
</svg><style>@media (prefers-color-scheme: light) { :root { filter: none; } }
</style></svg>