<svg xmlns="http://www.w3.org/2000/svg" version="1.1" xmlns:xlink="http://www.w3.org/1999/xlink" xmlns:svgjs="http://svgjs.dev/svgjs" viewBox="0 0 800 800" opacity="0.3"><defs><symbol id="bbburst-shape-1" viewBox="0 0 194 167"><path d="m97 0 96.129 166.5H.871L97 0Z"></path></symbol><symbol id="bbburst-shape-4" viewBox="0 0 149 143"><path d="M71.647 2.781c.898-2.764 4.808-2.764 5.706 0l15.445 47.534a3 3 0 0 0 2.853 2.073h49.98c2.906 0 4.115 3.719 1.764 5.427L106.96 87.193a2.999 2.999 0 0 0-1.09 3.354l15.445 47.534c.898 2.764-2.266 5.062-4.617 3.354l-40.435-29.378a3 3 0 0 0-3.526 0l-40.435 29.378c-2.351 1.708-5.515-.59-4.617-3.354L43.13 90.547a3 3 0 0 0-1.09-3.354L1.605 57.815c-2.35-1.708-1.142-5.427 1.764-5.427h49.98a3 3 0 0 0 2.853-2.073L71.647 2.781Z"></path></symbol><symbol id="bbburst-shape-10" viewBox="0 0 145 145"><circle cx="72.5" cy="72.5" r="61.5" fill="none" stroke-width="22"></circle></symbol><symbol id="bbburst-shape-11" viewBox="0 0 194 167"><path d="M10.398 161 97 11l86.603 150H10.397Z" stroke-width="11"></path></symbol><symbol id="bbburst-shape-13" viewBox="0 0 159 159"><path stroke-width="22" d="M11 11h137v137H11z"></path></symbol></defs><use xlink:href="#bbburst-shape-4" width="21.904550298398682" opacity="0.6149550582961312" transform="matrix(0.9977260585631261,-0.06739964439141656,0.06739964439141656,0.9977260585631261,345.86379467245365,-366.7769675158578)" fill="#ffa6d5"></use><use xlink:href="#bbburst-shape-13" width="12.357517746869139" opacity="0.81302580889016" transform="matrix(0.9313386938801221,-0.36415413945425373,0.36415413945425373,0.9313386938801221,34.95116403021569,-355.23332155501583)" fill="none" stroke="#ffa6d5"></use><use xlink:href="#bbburst-shape-4" width="25.026719735368726" opacity="0.7216150346536765" transform="matrix(0.9830759287135553,0.1831985763699616,-0.1831985763699616,0.9830759287135553,211.08189211901617,-161.05280604478693)" fill="#2c2891"></use><use xlink:href="#bbburst-shape-10" width="26.6607608225564" opacity="0.7016893949257371" transform="matrix(0.9021925458677399,0.431333525454127,-0.431333525454127,0.9021925458677399,365.8569854387886,-150.24635188491555)" fill="none" stroke="#2c2891"></use><use xlink:href="#bbburst-shape-10" width="32.05109765346776" opacity="0.3870103541531261" transform="matrix(0.9562442527757076,0.2925695285456582,-0.2925695285456582,0.9562442527757076,713.0761701891431,-342.6921510452925)" fill="none" stroke="#2c2891"></use><use xlink:href="#bbburst-shape-10" width="9.643439677029953" opacity="0.9514285933054853" transform="matrix(0.9918033517142417,-0.12777367306450957,0.12777367306450957,0.9918033517142417,-46.04664494019655,-348.5420614051092)" fill="none" stroke="#00a19d"></use><use xlink:href="#bbburst-shape-4" width="28.69095511702077" opacity="0.6528872521012965" transform="matrix(0.8297074883784367,-0.558198426841877,0.558198426841877,0.8297074883784367,-35.16720254597291,-40.15112258885176)" fill="#ffbd9b"></use><use xlink:href="#bbburst-shape-10" width="21.014484162924838" opacity="0.7135271124968339" transform="matrix(0.8414131680305097,-0.5403923395690036,0.5403923395690036,0.8414131680305097,-135.28911411741953,-58.82280081171217)" fill="none" stroke="#ffa6d5"></use><use xlink:href="#bbburst-shape-4" width="33.30921908123531" opacity="0.5141525369681836" transform="matrix(0.9684042969178343,-0.24938548015286527,0.24938548015286527,0.9684042969178343,344.7892522114999,-228.78947675257584)" fill="#ffa6d5"></use><use xlink:href="#bbburst-shape-11" width="19.479877401106236" opacity="0.838954820808264" transform="matrix(0.7109177259248708,-0.7032751858026915,0.7032751858026915,0.7109177259248708,-233.26031703401551,-126.38819023211605)" fill="none" stroke="#ffbd9b"></use><use xlink:href="#bbburst-shape-10" width="18.74002641285397" opacity="0.7404140910222308" transform="matrix(0.9713881542155974,0.23749748177531207,-0.23749748177531207,0.9713881542155974,288.13774384109524,-228.04290813379245)" fill="none" stroke="#2c2891"></use><use xlink:href="#bbburst-shape-10" width="19.00845388662268" opacity="0.7696794034802938" transform="matrix(0.9742251112018732,0.2255779969405216,-0.2255779969405216,0.9742251112018732,232.24096380765482,-218.15252220761633)" fill="none" stroke="#2c2891"></use><use xlink:href="#bbburst-shape-4" width="39.161364980354" opacity="0.52141384982752" transform="matrix(0.8232960222511979,-0.5676122441820253,0.5676122441820253,0.8232960222511979,-186.66411162249568,157.0667195910869)" fill="#ff5c58"></use><use xlink:href="#bbburst-shape-10" width="9.429450963580777" opacity="0.9231078448812208" transform="matrix(0.9813916170642317,-0.19201691059917705,0.19201691059917705,0.9813916170642317,-20.484821911345264,-344.77244284068723)" fill="none" stroke="#00a19d"></use><use xlink:href="#bbburst-shape-10" width="8.878925442737485" opacity="0.9371468165135917" transform="matrix(0.8612521982247946,-0.5081777750482197,0.5081777750482197,0.8612521982247946,-175.26624910004273,-288.0463346704896)" fill="none" stroke="#ffbd9b"></use><use xlink:href="#bbburst-shape-1" width="15.49117185186185" opacity="0.8038798354170416" transform="matrix(0.8835335929514769,0.46836779364752845,-0.46836779364752845,0.8835335929514769,214.96074698369296,-163.95577840176176)" fill="#00a19d"></use><use xlink:href="#bbburst-shape-11" width="8.130416659051052" opacity="0.9190410088133254" transform="matrix(0.9804361930911267,0.19683716944972246,-0.19683716944972246,0.9804361930911267,155.0451658994466,-382.578530714174)" fill="none" stroke="#ffa6d5"></use><use xlink:href="#bbburst-shape-11" width="51.45184762895232" opacity="0.27329085954622423" transform="matrix(0.8631036131996656,0.5050268833257118,-0.5050268833257118,0.8631036131996656,242.07521817686583,365.2591936110502)" fill="none" stroke="#ffbd9b"></use><use xlink:href="#bbburst-shape-13" width="45.74005177445599" opacity="0.374184309892145" transform="matrix(0.8312165151413767,0.5559488330379203,-0.5559488330379203,0.8312165151413767,488.37181646721615,211.9513962057561)" fill="none" stroke="#ffa6d5"></use><use xlink:href="#bbburst-shape-10" width="12.45092568865795" opacity="0.8723883478282707" transform="matrix(0.896831360967825,0.4423725918098892,-0.4423725918098892,0.896831360967825,282.75360698838404,-299.216911702724)" fill="none" stroke="#2c2891"></use><use xlink:href="#bbburst-shape-10" width="19.203888013216527" opacity="0.8042413338777774" transform="matrix(0.926923755823486,0.3752497180413098,-0.3752497180413098,0.926923755823486,296.4188706796035,-255.08961776457136)" fill="none" stroke="#ff5c58"></use><use xlink:href="#bbburst-shape-1" width="15.333525428750644" opacity="0.8161717745039387" transform="matrix(0.9921800319341547,0.12481500002459521,-0.12481500002459521,0.9921800319341547,209.85069618119348,-322.1443523415846)" fill="#ffa6d5"></use><use xlink:href="#bbburst-shape-4" width="10.656161320412872" opacity="0.965943991290545" transform="matrix(0.9716516434361022,0.23641718171047052,-0.23641718171047052,0.9716516434361022,121.68851026172646,-379.1193818643483)" fill="#ff5c58"></use><use xlink:href="#bbburst-shape-10" width="35.30959129178408" opacity="0.32838552234934915" transform="matrix(0.9999931959350418,0.0036889136098752526,-0.0036889136098752526,0.9999931959350418,642.2072788023858,-267.4224340903132)" fill="none" stroke="#ffa6d5"></use><use xlink:href="#bbburst-shape-10" width="59.952289847742435" opacity="0.29381904523833957" transform="matrix(0.7864043389030784,0.617712081599844,-0.617712081599844,0.7864043389030784,641.9182801060736,235.80411219349844)" fill="none" stroke="#ff5c58"></use><use xlink:href="#bbburst-shape-13" width="14.394328803126683" opacity="0.7149952624524816" transform="matrix(0.9033406786308145,0.4289237908193244,-0.4289237908193244,0.9033406786308145,442.98054874728683,-301.2383587164657)" fill="none" stroke="#ffa6d5"></use><use xlink:href="#bbburst-shape-4" width="20.337770552238595" opacity="0.7570838463746625" transform="matrix(0.7105855687996567,-0.703610793986042,0.703610793986042,0.7105855687996567,-268.8216357688267,-34.96118789384093)" fill="#ffa6d5"></use><use xlink:href="#bbburst-shape-11" width="41.77580829567476" opacity="0.24769730022041825" transform="matrix(0.9942127053201306,-0.10742949585671079,0.10742949585671079,0.9942127053201306,574.9877474086935,1.4074180792691209)" fill="none" stroke="#2c2891"></use><use xlink:href="#bbburst-shape-4" width="10.449422235262535" opacity="0.8624999357243075" transform="matrix(0.8905807269895312,-0.4548252067715664,0.4548252067715664,0.8905807269895312,-49.703517424724765,-340.75454931087677)" fill="#ffa6d5"></use><use xlink:href="#bbburst-shape-13" width="14.766200328459629" opacity="0.7403580174033206" transform="matrix(0.9774800766528088,-0.21102772269732475,0.21102772269732475,0.9774800766528088,150.0463761111398,-294.52618146630306)" fill="none" stroke="#00a19d"></use><use xlink:href="#bbburst-shape-11" width="28.210657555517226" opacity="0.6679427096823505" transform="matrix(0.9458726378358768,-0.32453806093184223,0.32453806093184223,0.9458726378358768,119.12725879860838,-170.62794437213034)" fill="none" stroke="#00a19d"></use><use xlink:href="#bbburst-shape-11" width="9.939171461571407" opacity="0.9122740121559889" transform="matrix(0.7564217890809308,0.6540841513166359,-0.6540841513166359,0.7564217890809308,312.9729925005619,-237.58431534166488)" fill="none" stroke="#00a19d"></use><use xlink:href="#bbburst-shape-10" width="9.868555226966295" opacity="0.8391297128447298" transform="matrix(0.7522502617419321,0.6588774876327121,-0.6588774876327121,0.7522502617419321,420.2501866792077,-292.0038110995618)" fill="none" stroke="#ffbd9b"></use><use xlink:href="#bbburst-shape-10" width="12.221277084304802" opacity="0.8505026553496785" transform="matrix(0.8717916887846627,0.4898767716130106,-0.4898767716130106,0.8717916887846627,301.99099606899654,-251.97681743446987)" fill="none" stroke="#ffbd9b"></use><use xlink:href="#bbburst-shape-4" width="31.511788052800405" opacity="0.5786531500826597" transform="matrix(0.9241865229996046,0.38194144931638585,-0.38194144931638585,0.9241865229996046,272.3350890784458,23.76116901241545)" fill="#ffa6d5"></use><use xlink:href="#bbburst-shape-13" width="18.05610812047674" opacity="0.6849273640713704" transform="matrix(0.7588359924625155,-0.6512817643258785,0.6512817643258785,0.7588359924625155,27.8329009534703,-187.51903121901745)" fill="none" stroke="#00a19d"></use><use xlink:href="#bbburst-shape-4" width="38.906920486475336" opacity="0.41342218256815744" transform="matrix(0.9631115906982144,-0.2691023297237599,0.2691023297237599,0.9631115906982144,439.1526214147456,-224.21707579862073)" fill="#00a19d"></use><use xlink:href="#bbburst-shape-4" width="24.886477601513462" opacity="0.6938680451897331" transform="matrix(0.8909092716092515,-0.4541813181546252,0.4541813181546252,0.8909092716092515,-165.2162809525735,-45.80067057505687)" fill="#2c2891"></use><use xlink:href="#bbburst-shape-4" width="13.367436112217247" opacity="0.7693435269285935" transform="matrix(0.8932683449033446,0.4495238191616095,-0.4495238191616095,0.8932683449033446,371.52015742885357,-241.462949287987)" fill="#ffa6d5"></use><use xlink:href="#bbburst-shape-13" width="13.548948378267289" opacity="0.7822241219285516" transform="matrix(0.9847958075469937,0.1737159101460329,-0.1737159101460329,0.9847958075469937,279.95878467820006,-378.5158669201507)" fill="none" stroke="#ffa6d5"></use><use xlink:href="#bbburst-shape-10" width="23.515588238408792" opacity="0.6167997289615587" transform="matrix(0.7641453309596067,0.6450441172296925,-0.6450441172296925,0.7641453309596067,606.9309662936482,-176.3063971122079)" fill="none" stroke="#ff5c58"></use><use xlink:href="#bbburst-shape-10" width="37.618440795026174" opacity="0.45055280391517083" transform="matrix(0.9953307434823598,0.09652311163059794,-0.09652311163059794,0.9953307434823598,515.2058835383682,-162.1405747597332)" fill="none" stroke="#ffbd9b"></use><use xlink:href="#bbburst-shape-13" width="28.563123193187007" opacity="0.480935645373081" transform="matrix(0.9930626633447129,0.11758633709196512,-0.11758633709196512,0.9930626633447129,550.994284068058,-367.9780263633159)" fill="none" stroke="#2c2891"></use><use xlink:href="#bbburst-shape-11" width="54.53149623793566" opacity="0.09177175901586221" transform="matrix(0.9963128489399079,-0.08579456298183574,0.08579456298183574,0.9963128489399079,659.9478263846448,154.77423989000886)" fill="none" stroke="#00a19d"></use><use xlink:href="#bbburst-shape-10" width="19.100811795652717" opacity="0.7634220962067298" transform="matrix(0.9556530847531681,-0.29449479044926097,0.29449479044926097,0.9556530847531681,-66.74494693342675,-150.65294875403282)" fill="none" stroke="#ff5c58"></use><use xlink:href="#bbburst-shape-11" width="15.24459255384592" opacity="0.7058151409388488" transform="matrix(0.7960096241386123,-0.6052839649938739,0.6052839649938739,0.7960096241386123,44.92144321077532,-290.156621031557)" fill="none" stroke="#ffa6d5"></use><use xlink:href="#bbburst-shape-4" width="17.314058992056445" opacity="0.7455015258897322" transform="matrix(0.9916251415287533,-0.1291494432356567,0.1291494432356567,0.9916251415287533,193.53179060985235,-376.32858066530554)" fill="#ffbd9b"></use><use xlink:href="#bbburst-shape-11" width="50.118005864879876" opacity="0.41392739367353815" transform="matrix(0.8266653245030353,0.5626939143657866,-0.5626939143657866,0.8266653245030353,265.77362999621533,237.58383581583166)" fill="none" stroke="#00a19d"></use><use xlink:href="#bbburst-shape-10" width="0.028588730416677678" opacity="0.9083249858269027" transform="matrix(0.9999206592434723,-0.01259663518959279,0.01259663518959279,0.9999206592434723,86.62206201085917,-399.93819908500063)" fill="none" stroke="#ffa6d5"></use><use xlink:href="#bbburst-shape-4" width="53.321173456883606" opacity="0.2293173940579013" transform="matrix(0.7845341527131997,-0.6200856095948218,0.6200856095948218,0.7845341527131997,-72.10137907836005,447.8830060771453)" fill="#ff5c58"></use><use xlink:href="#bbburst-shape-11" width="9.20197772370648" opacity="0.9071919827241219" transform="matrix(0.9293124903273748,-0.3692943207274285,0.3692943207274285,0.9293124903273748,-114.39060951809942,-285.3065134899241)" fill="none" stroke="#00a19d"></use><use xlink:href="#bbburst-shape-1" width="35.38851976962059" opacity="0.5523035250413257" transform="matrix(0.8470344011363727,0.5315380732285754,-0.5315380732285754,0.8470344011363727,597.2952318004109,-146.4911029145466)" fill="#ffbd9b"></use><use xlink:href="#bbburst-shape-4" width="33.48834659583747" opacity="0.6157371094252992" transform="matrix(0.9896534381689849,0.14347847336902905,-0.14347847336902905,0.9896534381689849,305.2894104279659,-119.4653229893645)" fill="#ff5c58"></use><use xlink:href="#bbburst-shape-1" width="26.370106624330838" opacity="0.609420548177066" transform="matrix(0.7642490883777519,0.6449211819391384,-0.6449211819391384,0.7642490883777519,284.6559674465876,74.66629205123775)" fill="#ffa6d5"></use><use xlink:href="#bbburst-shape-1" width="8.878222220529418" opacity="0.9861557889958021" transform="matrix(0.999532416033939,0.03057694061472828,-0.03057694061472828,0.999532416033939,17.971225437045888,-390.5524928157065)" fill="#ff5c58"></use><use xlink:href="#bbburst-shape-1" width="17.291980544859534" opacity="0.7827881469047248" transform="matrix(0.9323411985891302,-0.3615797137746863,0.3615797137746863,0.9323411985891302,48.91637532112114,-288.93199760883374)" fill="#00a19d"></use><use xlink:href="#bbburst-shape-4" width="49.2814186700493" opacity="0.1560927543076286" transform="matrix(0.999836041379696,-0.018107743044868282,0.018107743044868282,0.999836041379696,718.0693517201564,-12.459173896994287)" fill="#00a19d"></use><use xlink:href="#bbburst-shape-11" width="48.76590576583583" opacity="0.25980320206436236" transform="matrix(0.8787253912452215,-0.4773276513894123,0.4773276513894123,0.8787253912452215,525.9185668191503,-291.43933062811044)" fill="none" stroke="#ffbd9b"></use><use xlink:href="#bbburst-shape-10" width="15.125467447736513" opacity="0.7588025636873321" transform="matrix(0.9947538994506628,-0.10229701622090721,0.10229701622090721,0.9947538994506628,57.27608242064439,-180.33327438106025)" fill="none" stroke="#ff5c58"></use><use xlink:href="#bbburst-shape-4" width="19.91388829985082" opacity="0.8020656110043606" transform="matrix(0.7514317645726534,0.6598108086347392,-0.6598108086347392,0.7514317645726534,346.820767314636,-131.03908640255636)" fill="#00a19d"></use><use xlink:href="#bbburst-shape-11" width="50.03408573680642" opacity="0.45861307881760016" transform="matrix(0.9980627673418618,0.062215049995194865,-0.062215049995194865,0.9980627673418618,309.770206518354,42.552311715691474)" fill="none" stroke="#ff5c58"></use><use xlink:href="#bbburst-shape-1" width="28.904855854882875" opacity="0.5553801443350426" transform="matrix(0.9827543652626161,0.1849158120801804,-0.1849158120801804,0.9827543652626161,502.74196253606965,-357.65279161613694)" fill="#2c2891"></use><use xlink:href="#bbburst-shape-10" width="9.458247552399268" opacity="0.9225931504725092" transform="matrix(0.9823543317982946,-0.18702932068829786,0.18702932068829786,0.9823543317982946,-8.012150412637851,-362.2680547926407)" fill="none" stroke="#ffa6d5"></use><use xlink:href="#bbburst-shape-13" width="63.81555085979577" opacity="0.21860212566855697" transform="matrix(0.9999784659971533,-0.006562586531235568,0.006562586531235568,0.9999784659971533,294.97207998187406,308.7443709054305)" fill="none" stroke="#00a19d"></use><use xlink:href="#bbburst-shape-13" width="8.5767851547311" opacity="0.9682907762232245" transform="matrix(0.97709439564869,0.21280634857052835,-0.21280634857052835,0.97709439564869,95.44566631942543,-363.5574635036737)" fill="none" stroke="#2c2891"></use><use xlink:href="#bbburst-shape-10" width="14.051085191902736" opacity="0.8822523452578197" transform="matrix(0.9728356592543598,0.2314968252117838,-0.2314968252117838,0.9728356592543598,162.82952580211185,-301.73583522637216)" fill="none" stroke="#ff5c58"></use><use xlink:href="#bbburst-shape-4" width="13.891445387399294" opacity="0.8484480726134831" transform="matrix(0.9571267216170841,0.28966953372167537,-0.28966953372167537,0.9571267216170841,193.460955619728,-258.8711643904143)" fill="#ffa6d5"></use><use xlink:href="#bbburst-shape-11" width="11.043584718687502" opacity="0.855176531865209" transform="matrix(0.9102911413406314,0.413968643736178,-0.413968643736178,0.9102911413406314,297.5727473807707,-319.43873919657693)" fill="none" stroke="#ff5c58"></use><use xlink:href="#bbburst-shape-4" width="33.809002974036" opacity="0.4855057357345791" transform="matrix(0.7347110300328739,0.6783802048615758,-0.6783802048615758,0.7347110300328739,676.1923413266993,-4.362995225029977)" fill="#ffa6d5"></use><use xlink:href="#bbburst-shape-4" width="30.058625984491567" opacity="0.6535299679039401" transform="matrix(0.7717173138968042,-0.6359657124656182,0.6359657124656182,0.7717173138968042,-181.95037938879696,37.02117133870826)" fill="#ffbd9b"></use><use xlink:href="#bbburst-shape-10" width="57.59610198304887" opacity="0.11918373293377127" transform="matrix(0.9841232596485339,0.17748636516291708,-0.17748636516291708,0.9841232596485339,522.6767282456699,339.7617444454619)" fill="none" stroke="#2c2891"></use><use xlink:href="#bbburst-shape-4" width="11.994457246097072" opacity="0.9265701200172286" transform="matrix(0.8182002153206195,0.5749333940982138,-0.5749333940982138,0.8182002153206195,237.2427838973123,-258.3069777738199)" fill="#ffbd9b"></use><use xlink:href="#bbburst-shape-10" width="12.925586406646893" opacity="0.8340366848986374" transform="matrix(0.9190589268482734,-0.39412014536242623,0.39412014536242623,0.9190589268482734,-148.24794740878258,-199.82357723360545)" fill="none" stroke="#ffa6d5"></use><use xlink:href="#bbburst-shape-1" width="19.876099097732776" opacity="0.6439361176485645" transform="matrix(0.9726211283787279,0.23239651596203004,-0.23239651596203004,0.9726211283787279,395.5171013717023,-220.17919032532146)" fill="#2c2891"></use><use xlink:href="#bbburst-shape-11" width="24.23209847552847" opacity="0.48494286399475495" transform="matrix(0.7194239500451353,0.6945712203233407,-0.6945712203233407,0.7194239500451353,775.4257976734705,-200.75568884884086)" fill="none" stroke="#ffbd9b"></use><use xlink:href="#bbburst-shape-4" width="9.245259161243052" opacity="0.8970727535840277" transform="matrix(0.9978744203577741,-0.06516625810675666,0.06516625810675666,0.9978744203577741,65.92036409509845,-363.30672659670375)" fill="#2c2891"></use><use xlink:href="#bbburst-shape-10" width="45.003604314571476" opacity="0.5623008422510825" transform="matrix(0.9794401994620018,-0.20173471609476198,0.20173471609476198,0.9794401994620018,124.35131769306707,-13.05325365318646)" fill="none" stroke="#2c2891"></use><use xlink:href="#bbburst-shape-10" width="9.99252633032038" opacity="0.8402830236370211" transform="matrix(0.9164390087703305,0.400174390989796,-0.400174390989796,0.9164390087703305,292.97935194933393,-287.29484036184283)" fill="none" stroke="#ffa6d5"></use><use xlink:href="#bbburst-shape-10" width="44.67387758623404" opacity="0.36934348466198585" transform="matrix(0.7324119192200543,0.6808617925720291,-0.6808617925720291,0.7324119192200543,777.6421049810461,46.2296869245306)" fill="none" stroke="#00a19d"></use><use xlink:href="#bbburst-shape-4" width="64.13018507808286" opacity="-0.010548644595603118" transform="matrix(0.9374043594751845,-0.348242827401971,0.348242827401971,0.9374043594751845,535.673150477219,360.2566884691545)" fill="#2c2891"></use><use xlink:href="#bbburst-shape-4" width="52.23476834070534" opacity="0.25393244901027745" transform="matrix(0.9167844094571722,0.3993824565203935,-0.3993824565203935,0.9167844094571722,691.1823003585062,121.05155307654002)" fill="#ffa6d5"></use><use xlink:href="#bbburst-shape-4" width="27.105604268632607" opacity="0.5798816909766712" transform="matrix(0.9992425165410241,-0.03891520444198098,0.03891520444198098,0.9992425165410241,379.04785307067044,-299.60385913492286)" fill="#00a19d"></use><use xlink:href="#bbburst-shape-1" width="10.965778463892562" opacity="0.8778179191965209" transform="matrix(0.9569932385873904,0.29011022267065684,-0.29011022267065684,0.9569932385873904,230.11974353455741,-358.1148804147496)" fill="#ffa6d5"></use><use xlink:href="#bbburst-shape-13" width="6.674716576655194" opacity="0.8948367534132526" transform="matrix(0.9518407986202871,0.30659271694202717,-0.30659271694202717,0.9518407986202871,224.1844605853608,-372.15795093068607)" fill="none" stroke="#ffa6d5"></use><use xlink:href="#bbburst-shape-10" width="36.2335607576742" opacity="0.527127021482745" transform="matrix(0.9286675228463361,0.37091324054345876,-0.37091324054345876,0.9286675228463361,460.5066273379713,-38.4952238969625)" fill="none" stroke="#ffbd9b"></use><use xlink:href="#bbburst-shape-13" width="41.06579838744934" opacity="0.4793578091995848" transform="matrix(0.9339275120254803,0.35746244877175043,-0.35746244877175043,0.9339275120254803,301.5652521467968,108.44690801601115)" fill="none" stroke="#ffbd9b"></use><use xlink:href="#bbburst-shape-11" width="11.21519696537097" opacity="0.8001147739764568" transform="matrix(0.7395092379753412,0.673146408256874,-0.673146408256874,0.7395092379753412,459.6138648042201,-253.20045298662035)" fill="none" stroke="#ffa6d5"></use><use xlink:href="#bbburst-shape-10" width="14.674049687046665" opacity="0.8771349609067443" transform="matrix(0.8212586416035836,0.5705560827748982,-0.5705560827748982,0.8212586416035836,272.86337903625025,-220.75785456046702)" fill="none" stroke="#ffbd9b"></use><use xlink:href="#bbburst-shape-13" width="23.91447225866779" opacity="0.6536205090762258" transform="matrix(0.7164052546334623,0.6976843922100909,-0.6976843922100909,0.7164052546334623,418.42862156080184,18.30167376027788)" fill="none" stroke="#ffa6d5"></use><use xlink:href="#bbburst-shape-4" width="12.11895553254022" opacity="0.8321393488972827" transform="matrix(0.9601297117938024,-0.2795548900140188,0.2795548900140188,0.9601297117938024,45.41908301150774,-342.4728525438316)" fill="#2c2891"></use><use xlink:href="#bbburst-shape-11" width="21.46327575128505" opacity="0.7111380540290873" transform="matrix(0.9999033930017457,0.013899808041714309,-0.013899808041714309,0.9999033930017457,245.91590519626652,-257.56314595175456)" fill="none" stroke="#ffbd9b"></use><use xlink:href="#bbburst-shape-13" width="21.23252172107473" opacity="0.664855156758621" transform="matrix(0.9998474639090424,0.017465649562957937,-0.017465649562957937,0.9998474639090424,330.7044352875958,-376.8082896187549)" fill="none" stroke="#2c2891"></use><use xlink:href="#bbburst-shape-4" width="58.7661913111356" opacity="0.351827252702118" transform="matrix(0.7752703634769724,-0.6316295302741024,0.6316295302741024,0.7752703634769724,-95.47249437005843,331.1920358837613)" fill="#ffbd9b"></use><use xlink:href="#bbburst-shape-11" width="52.75706213207715" opacity="0.23499954709480242" transform="matrix(0.9769471030618143,-0.21348151634071003,0.21348151634071003,0.9769471030618143,607.8820681265556,-125.06075170234931)" fill="none" stroke="#00a19d"></use><use xlink:href="#bbburst-shape-11" width="38.51985955044843" opacity="0.22698689918825365" transform="matrix(0.8576099300014784,0.5143006979995839,-0.5143006979995839,0.8576099300014784,945.4100670671074,-191.8641120824774)" fill="none" stroke="#ff5c58"></use><use xlink:href="#bbburst-shape-4" width="11.698950042705896" opacity="0.8983718881900974" transform="matrix(0.808077311725441,-0.5890764451873666,0.5890764451873666,0.808077311725441,-226.12382260167203,-219.14922098587397)" fill="#00a19d"></use><use xlink:href="#bbburst-shape-4" width="11.718681231206226" opacity="0.8955583244207577" transform="matrix(0.8261659173082004,-0.563426904822888,0.563426904822888,0.8261659173082004,-145.37342274615608,-266.2336092701923)" fill="#2c2891"></use><use xlink:href="#bbburst-shape-1" width="51.486703668124065" opacity="0.39717098688795693" transform="matrix(0.7449492104401375,0.6671211837924319,-0.6671211837924319,0.7449492104401375,674.426643856322,110.62418161953389)" fill="#2c2891"></use><use xlink:href="#bbburst-shape-4" width="14.091416320538308" opacity="0.7619860177168902" transform="matrix(0.9568900205156184,0.29045049257596245,-0.29045049257596245,0.9568900205156184,341.5884541148738,-332.30022446400136)" fill="#ffbd9b"></use><use xlink:href="#bbburst-shape-11" width="18.981727385885502" opacity="0.8151372512924471" transform="matrix(0.9932293425990234,0.11617001764789328,-0.11617001764789328,0.9932293425990234,156.23317162612176,-257.3066469681591)" fill="none" stroke="#2c2891"></use><use xlink:href="#bbburst-shape-4" width="65.93670343840887" opacity="0.14442364023752596" transform="matrix(0.7160016235811124,0.698098614114948,-0.698098614114948,0.7160016235811124,824.4138620981054,329.7301153609267)" fill="#00a19d"></use><use xlink:href="#bbburst-shape-1" width="11.396568605527111" opacity="0.9478304348558371" transform="matrix(0.8981403821748212,-0.4397088285523344,0.4397088285523344,0.8981403821748212,-139.94436893713674,-324.5424271710943)" fill="#00a19d"></use><use xlink:href="#bbburst-shape-4" width="7.555361884657675" opacity="0.9436440490307438" transform="matrix(0.782998632219789,-0.6220234255572209,0.6220234255572209,0.782998632219789,-196.54222447223825,-299.59009708108783)" fill="#ffa6d5"></use><use xlink:href="#bbburst-shape-10" width="15.034312821054332" opacity="0.8685238458693507" transform="matrix(0.7939984431061617,-0.6079197910456536,0.6079197910456536,0.7939984431061617,-230.01456902045607,-182.95138429014895)" fill="none" stroke="#00a19d"></use><use xlink:href="#bbburst-shape-10" width="26.2972271632375" opacity="0.5860991084867516" transform="matrix(0.8236879694048743,0.5670433220289918,-0.5670433220289918,0.8236879694048743,550.8529109241288,-93.66416263786542)" fill="none" stroke="#00a19d"></use><use xlink:href="#bbburst-shape-1" width="36.29793862983511" opacity="0.34369835782711655" transform="matrix(0.7819329452843394,-0.6233625502698716,0.6233625502698716,0.7819329452843394,339.0277988418894,-41.26265737848331)" fill="#ff5c58"></use><use xlink:href="#bbburst-shape-13" width="23.47810339843982" opacity="0.653038621556487" transform="matrix(0.9359317242719759,0.3521814979542311,-0.3521814979542311,0.9359317242719759,468.54447859789656,-303.0589960012308)" fill="none" stroke="#00a19d"></use></svg>