<svg xmlns="http://www.w3.org/2000/svg" version="1.1" xmlns:xlink="http://www.w3.org/1999/xlink" xmlns:svgjs="http://svgjs.dev/svgjs" viewBox="0 0 800 800" opacity="0.3"><defs><symbol id="bbburst-shape-1" viewBox="0 0 194 167"><path d="m97 0 96.129 166.5H.871L97 0Z"></path></symbol><symbol id="bbburst-shape-4" viewBox="0 0 149 143"><path d="M71.647 2.781c.898-2.764 4.808-2.764 5.706 0l15.445 47.534a3 3 0 0 0 2.853 2.073h49.98c2.906 0 4.115 3.719 1.764 5.427L106.96 87.193a2.999 2.999 0 0 0-1.09 3.354l15.445 47.534c.898 2.764-2.266 5.062-4.617 3.354l-40.435-29.378a3 3 0 0 0-3.526 0l-40.435 29.378c-2.351 1.708-5.515-.59-4.617-3.354L43.13 90.547a3 3 0 0 0-1.09-3.354L1.605 57.815c-2.35-1.708-1.142-5.427 1.764-5.427h49.98a3 3 0 0 0 2.853-2.073L71.647 2.781Z"></path></symbol><symbol id="bbburst-shape-10" viewBox="0 0 145 145"><circle cx="72.5" cy="72.5" r="61.5" fill="none" stroke-width="22"></circle></symbol><symbol id="bbburst-shape-11" viewBox="0 0 194 167"><path d="M10.398 161 97 11l86.603 150H10.397Z" stroke-width="11"></path></symbol><symbol id="bbburst-shape-13" viewBox="0 0 159 159"><path stroke-width="22" d="M11 11h137v137H11z"></path></symbol></defs><use xlink:href="#bbburst-shape-1" width="40.40623792308146" opacity="0.42340854122699034" transform="matrix(0.9660340081598683,-0.2584149668238656,0.2584149668238656,0.9660340081598683,111.73053431138113,-268.0916859217254)" fill="#00a19d"></use><use xlink:href="#bbburst-shape-13" width="5.408340552303824" opacity="0.966890146891879" transform="matrix(0.9149721022029343,0.40351710272346947,-0.40351710272346947,0.9149721022029343,950.1091010736985,-335.1675108820732)" fill="none" stroke="#00a19d"></use><use xlink:href="#bbburst-shape-1" width="17.742312687117746" opacity="0.8289846381523231" transform="matrix(0.7857782791393337,-0.6185082829136788,0.6185082829136788,0.7857782791393337,383.327676027159,-254.94608163024668)" fill="#2c2891"></use><use xlink:href="#bbburst-shape-10" width="25.031219505841566" opacity="0.7407295412152903" transform="matrix(0.8860126423011166,-0.46366108062095696,0.46366108062095696,0.8860126423011166,445.2326897631209,-143.20115098480966)" fill="none" stroke="#00a19d"></use><use xlink:href="#bbburst-shape-11" width="8.84388063550369" opacity="0.931920427351965" transform="matrix(0.9821580213285263,-0.18805749424054927,0.18805749424054927,0.9821580213285263,705.901062463414,-325.62856105038276)" fill="none" stroke="#ffa6d5"></use><use xlink:href="#bbburst-shape-10" width="31.309257729898484" opacity="0.34011589255795016" transform="matrix(0.9862849522261158,-0.1650514859440182,0.1650514859440182,0.9862849522261158,671.6125261816551,266.28325601010636)" fill="none" stroke="#2c2891"></use><use xlink:href="#bbburst-shape-11" width="18.111300972658924" opacity="0.7722465150391392" transform="matrix(0.944457296208615,0.32863416687604563,-0.32863416687604563,0.944457296208615,847.7151637420243,-166.02074555103272)" fill="none" stroke="#00a19d"></use><use xlink:href="#bbburst-shape-11" width="34.08223005485422" opacity="0.2304207569240796" transform="matrix(0.9279014999910088,0.3728254367856837,-0.3728254367856837,0.9279014999910088,168.42727000834108,-294.58906334384983)" fill="none" stroke="#2c2891"></use><use xlink:href="#bbburst-shape-11" width="61.79050108678214" opacity="0.2429020591372606" transform="matrix(0.8533891382630573,-0.5212743794726884,0.5212743794726884,0.8533891382630573,100.58254037124871,272.2197418501139)" fill="none" stroke="#2c2891"></use><use xlink:href="#bbburst-shape-4" width="30.114698077522288" opacity="0.5004950841965261" transform="matrix(0.9241630405021226,-0.38199826513987206,0.38199826513987206,0.9241630405021226,551.4594282313707,128.86746359281432)" fill="#2c2891"></use><use xlink:href="#bbburst-shape-11" width="54.26049775489008" opacity="0.30199862695463797" transform="matrix(0.9773316253924279,0.2117141799875363,-0.2117141799875363,0.9773316253924279,214.0511814610776,-128.79780492991097)" fill="none" stroke="#ffa6d5"></use><use xlink:href="#bbburst-shape-11" width="34.60080036604303" opacity="0.5026726598832001" transform="matrix(0.8920438597960982,0.4519488380337745,-0.4519488380337745,0.8920438597960982,630.2246953527523,2.243017418503314)" fill="none" stroke="#ff5c58"></use><use xlink:href="#bbburst-shape-4" width="21.230054615536062" opacity="0.7857669656158272" transform="matrix(0.8098448407145166,-0.5866441288959426,0.5866441288959426,0.8098448407145166,444.35766443967725,-135.31587921409331)" fill="#ffa6d5"></use><use xlink:href="#bbburst-shape-4" width="18.108186770244927" opacity="0.8687354235195758" transform="matrix(0.9201309014254664,0.39161093478343867,-0.39161093478343867,0.9201309014254664,889.7635509479015,-254.09651518568404)" fill="#2c2891"></use><use xlink:href="#bbburst-shape-10" width="27.01683350197343" opacity="0.6861342323705055" transform="matrix(0.7512410902720785,0.6600278965974232,-0.6600278965974232,0.7512410902720785,1026.0685558789255,3.2203093678066352)" fill="none" stroke="#ffa6d5"></use><use xlink:href="#bbburst-shape-11" width="7.468031866213564" opacity="0.969174630986042" transform="matrix(0.8918906959231676,-0.45225102158611846,0.45225102158611846,0.8918906959231676,585.9134199105006,-347.31571755859403)" fill="none" stroke="#00a19d"></use><use xlink:href="#bbburst-shape-13" width="44.01576777951111" opacity="0.2919934890405468" transform="matrix(0.9306910940144204,0.3658060791214947,-0.3658060791214947,0.9306910940144204,778.8185690575762,312.2463678344295)" fill="none" stroke="#2c2891"></use><use xlink:href="#bbburst-shape-13" width="17.801667801024156" opacity="0.6995567718589515" transform="matrix(0.8808561867581922,-0.4733839649267989,0.4733839649267989,0.8808561867581922,303.3017089411021,-324.3953058723532)" fill="none" stroke="#ff5c58"></use><use xlink:href="#bbburst-shape-1" width="23.31426336628732" opacity="0.7120664080733999" transform="matrix(0.9999078569036122,0.013574892354103352,-0.013574892354103352,0.9999078569036122,547.6077403065518,-250.73209496221997)" fill="#ff5c58"></use><use xlink:href="#bbburst-shape-11" width="9.988437003075767" opacity="0.9397625560862054" transform="matrix(0.9999937211768616,-0.0035436713805246426,0.0035436713805246426,0.9999937211768616,757.4193064191547,-351.9381544866751)" fill="none" stroke="#2c2891"></use><use xlink:href="#bbburst-shape-4" width="18.145451692768397" opacity="0.8093686143344774" transform="matrix(0.8007052127035238,0.5990585633720669,-0.5990585633720669,0.8007052127035238,1007.4930859608581,-136.7000146815033)" fill="#ffa6d5"></use><use xlink:href="#bbburst-shape-11" width="27.965411760641857" opacity="0.5699342255150217" transform="matrix(0.8963905322494525,-0.443265173111472,0.443265173111472,0.8963905322494525,272.87096869645603,-85.65980050694122)" fill="none" stroke="#ffa6d5"></use><use xlink:href="#bbburst-shape-10" width="33.48853553397019" opacity="0.6454565612804277" transform="matrix(0.8179604851663751,-0.5752744081795993,0.5752744081795993,0.8179604851663751,275.23799771512574,-101.30014146391531)" fill="none" stroke="#00a19d"></use><use xlink:href="#bbburst-shape-10" width="9.516155278027615" opacity="0.9241804696513788" transform="matrix(0.9403607105309001,-0.34017897361509675,0.34017897361509675,0.9403607105309001,599.6097396339367,-327.9719113836612)" fill="none" stroke="#ff5c58"></use><use xlink:href="#bbburst-shape-10" width="51.76140103564275" opacity="0.1686610842218268" transform="matrix(0.9981776262013321,0.06034423378479213,-0.06034423378479213,0.9981776262013321,54.88978959479168,-28.731379699532738)" fill="none" stroke="#2c2891"></use><use xlink:href="#bbburst-shape-11" width="15.801527909474308" opacity="0.6598420415790799" transform="matrix(0.9340818091566281,-0.35705906206492016,0.35705906206492016,0.9340818091566281,312.32005284342074,-327.8023412511543)" fill="none" stroke="#2c2891"></use><use xlink:href="#bbburst-shape-11" width="26.819230431976486" opacity="0.6755754131000662" transform="matrix(0.8867508424416247,0.4622477078678366,-0.4622477078678366,0.8867508424416247,783.158699670032,-98.245617629234)" fill="none" stroke="#00a19d"></use><use xlink:href="#bbburst-shape-10" width="36.16927652722787" opacity="0.44709818408988655" transform="matrix(0.9081815098247523,0.4185765703099415,-0.4185765703099415,0.9081815098247523,758.936630340538,147.6260892064385)" fill="none" stroke="#ffa6d5"></use><use xlink:href="#bbburst-shape-4" width="24.816479220431894" opacity="0.6273998358090507" transform="matrix(0.9005456000896542,-0.43476156932181176,0.43476156932181176,0.9005456000896542,259.3779798346675,-243.38977275411156)" fill="#2c2891"></use><use xlink:href="#bbburst-shape-4" width="68.4150868331875" opacity="-0.011604819306062053" transform="matrix(0.7172807162657796,-0.6967843095773972,0.6967843095773972,0.7172807162657796,-219.71102358192041,451.0868042727628)" fill="#2c2891"></use><use xlink:href="#bbburst-shape-13" width="41.41976614237338" opacity="0.3053276894721739" transform="matrix(0.7933782545932322,0.6087289586824307,-0.6087289586824307,0.7933782545932322,506.41888876295343,129.93503529465818)" fill="none" stroke="#2c2891"></use><use xlink:href="#bbburst-shape-11" width="49.24680136369847" opacity="0.31872045912475744" transform="matrix(0.8458859265204002,0.533363852651006,-0.533363852651006,0.8458859265204002,748.1352597591783,283.785173612607)" fill="none" stroke="#00a19d"></use><use xlink:href="#bbburst-shape-10" width="41.75198414479188" opacity="0.23929961579927184" transform="matrix(0.8147146969501274,0.5798620202888459,-0.5798620202888459,0.8147146969501274,948.3273068310039,419.78741634595747)" fill="none" stroke="#2c2891"></use><use xlink:href="#bbburst-shape-10" width="52.23160028402547" opacity="0.41836666920148347" transform="matrix(0.9658786135372793,0.258995181251125,-0.258995181251125,0.9658786135372793,441.6171314401872,-9.00424606792717)" fill="none" stroke="#2c2891"></use><use xlink:href="#bbburst-shape-11" width="18.578560775423366" opacity="0.8258715137448647" transform="matrix(0.7477689859057425,0.6639589924968993,-0.6639589924968993,0.7477689859057425,992.8380247367909,-144.30151679052804)" fill="none" stroke="#ffa6d5"></use><use xlink:href="#bbburst-shape-11" width="40.08696161361159" opacity="0.5515106682721739" transform="matrix(0.8103630957591521,-0.5859280271770955,0.5859280271770955,0.8103630957591521,399.2923341051549,109.91563615547756)" fill="none" stroke="#00a19d"></use><use xlink:href="#bbburst-shape-13" width="36.81456779750634" opacity="0.29529083274830514" transform="matrix(0.8928543774822322,-0.45034549027476195,0.45034549027476195,0.8928543774822322,-99.64503302978089,-300.8410831106052)" fill="none" stroke="#2c2891"></use><use xlink:href="#bbburst-shape-10" width="17.44346172568306" opacity="0.8151973158580788" transform="matrix(0.741821446293373,0.6705974513962966,-0.6705974513962966,0.741821446293373,877.994009061804,-283.1149596091802)" fill="none" stroke="#ffbd9b"></use><use xlink:href="#bbburst-shape-13" width="13.327048590379972" opacity="0.8502132687800865" transform="matrix(0.9996267322431995,-0.0273202522825588,0.0273202522825588,0.9996267322431995,633.7962966338952,-380.96654169546497)" fill="none" stroke="#2c2891"></use><use xlink:href="#bbburst-shape-11" width="25.85387855712292" opacity="0.5692490230782452" transform="matrix(0.9605650281044351,-0.2780554383261113,0.2780554383261113,0.9605650281044351,260.2156927529546,-269.38607218688423)" fill="none" stroke="#00a19d"></use><use xlink:href="#bbburst-shape-1" width="10.077875949029085" opacity="0.950776826814609" transform="matrix(0.7766984161068384,-0.6298726620652213,0.6298726620652213,0.7766984161068384,497.8949729388317,-290.6483803243156)" fill="#ffa6d5"></use><use xlink:href="#bbburst-shape-4" width="15.836030349898252" opacity="0.75762094522636" transform="matrix(0.7582557756521968,-0.6519571908416115,0.6519571908416115,0.7582557756521968,510.9007024129766,-56.780200636899025)" fill="#00a19d"></use><use xlink:href="#bbburst-shape-1" width="35.9509036424115" opacity="0.4128555046444825" transform="matrix(0.9267641815853634,0.3756436499269107,-0.3756436499269107,0.9267641815853634,383.25317037172744,-172.77421930476558)" fill="#ff5c58"></use><use xlink:href="#bbburst-shape-4" width="12.307849533961448" opacity="0.9102895320364661" transform="matrix(0.7975583984559306,-0.6032417434597932,0.6032417434597932,0.7975583984559306,509.75766931255146,-237.14800105707855)" fill="#ff5c58"></use><use xlink:href="#bbburst-shape-1" width="29.035808515098633" opacity="0.6579164768630252" transform="matrix(0.9729109720113924,0.2311801041176502,-0.2311801041176502,0.9729109720113924,573.7376305161905,-236.79453245423062)" fill="#ffa6d5"></use><use xlink:href="#bbburst-shape-11" width="21.77421538132485" opacity="0.6157018434561057" transform="matrix(0.8551902199506292,0.5183142750308875,-0.5183142750308875,0.8551902199506292,615.4129921806261,-313.47220479845)" fill="none" stroke="#ffbd9b"></use><use xlink:href="#bbburst-shape-10" width="56.95592350279104" opacity="0.09006903866010574" transform="matrix(0.9445874023006715,0.3282600179962057,-0.3282600179962057,0.9445874023006715,358.7928813290531,341.0220284447845)" fill="none" stroke="#00a19d"></use><use xlink:href="#bbburst-shape-4" width="62.30502231566238" opacity="0.09104861283198351" transform="matrix(0.7669490464769283,0.6417080022160628,-0.6417080022160628,0.7669490464769283,298.0733519031711,208.47034103431838)" fill="#2c2891"></use><use xlink:href="#bbburst-shape-1" width="65.04333341430964" opacity="0.175779726535516" transform="matrix(0.9859112162276871,-0.16726946438738535,0.16726946438738535,0.9859112162276871,320.1820457894985,342.10548480882534)" fill="#ffa6d5"></use><use xlink:href="#bbburst-shape-13" width="12.948209222206955" opacity="0.8089048552455167" transform="matrix(0.8442138009584181,0.5360065841679003,-0.5360065841679003,0.8442138009584181,843.320311156319,-245.82241967797728)" fill="none" stroke="#ffa6d5"></use><use xlink:href="#bbburst-shape-4" width="8.348430193656162" opacity="0.9116103019804918" transform="matrix(0.9989766603784231,0.04522866368988391,-0.04522866368988391,0.9989766603784231,726.5254680756514,-386.55331381795696)" fill="#00a19d"></use><use xlink:href="#bbburst-shape-4" width="24.92243967427981" opacity="0.6240132724345262" transform="matrix(0.9265556976390166,0.37615759885010325,-0.37615759885010325,0.9265556976390166,889.2423317260759,-2.5967638940290385)" fill="#2c2891"></use><use xlink:href="#bbburst-shape-11" width="22.32825489689264" opacity="0.7037802427497075" transform="matrix(0.9802221907191127,0.1979001182966383,-0.1979001182966383,0.9802221907191127,651.4216672333491,-192.7849519821914)" fill="none" stroke="#00a19d"></use><use xlink:href="#bbburst-shape-11" width="20.40975509506021" opacity="0.7860882191127068" transform="matrix(0.7424421315490632,-0.669910203908616,0.669910203908616,0.7424421315490632,322.09623075400594,-220.4881422350232)" fill="none" stroke="#00a19d"></use><use xlink:href="#bbburst-shape-11" width="43.085964130441475" opacity="0.4485950392712683" transform="matrix(0.836642759787459,-0.5477489319891224,0.5477489319891224,0.836642759787459,287.6269626383421,154.6454399962559)" fill="none" stroke="#2c2891"></use><use xlink:href="#bbburst-shape-13" width="31.75184373131401" opacity="0.4382180303337686" transform="matrix(0.7489087968512655,0.6626730822953275,-0.6626730822953275,0.7489087968512655,1015.2505405460662,250.41605208757983)" fill="none" stroke="#ffbd9b"></use><use xlink:href="#bbburst-shape-1" width="24.750413125958417" opacity="0.686896832316533" transform="matrix(0.9997191409966261,0.023698926662783715,-0.023698926662783715,0.9997191409966261,498.7845442372345,-305.0845756010114)" fill="#ff5c58"></use><use xlink:href="#bbburst-shape-11" width="38.916307590507564" opacity="0.31955320022404876" transform="matrix(0.8506307007224022,-0.525763645556171,0.525763645556171,0.8506307007224022,237.32078903274072,261.504575390548)" fill="none" stroke="#ffbd9b"></use><use xlink:href="#bbburst-shape-10" width="12.651878559820911" opacity="0.8510843487298826" transform="matrix(0.9738967513945043,0.22699144834823887,-0.22699144834823887,0.9738967513945043,863.0334401820417,-243.65417729019836)" fill="none" stroke="#2c2891"></use><use xlink:href="#bbburst-shape-1" width="16.942817462588298" opacity="0.7452328981223939" transform="matrix(0.9969071774804525,0.07858803654474049,-0.07858803654474049,0.9969071774804525,568.8799092714154,-381.0983301223773)" fill="#ffbd9b"></use><use xlink:href="#bbburst-shape-11" width="16.93086230676478" opacity="0.8315756052448415" transform="matrix(0.9806740025019296,-0.19564892235032993,0.19564892235032993,0.9806740025019296,582.4157297513137,-284.94543223553546)" fill="none" stroke="#00a19d"></use><use xlink:href="#bbburst-shape-4" width="43.93053782402077" opacity="0.2180667964923636" transform="matrix(0.9779233803415994,0.20896378198448506,-0.20896378198448506,0.9779233803415994,112.11006509285156,-174.497654175)" fill="#00a19d"></use><use xlink:href="#bbburst-shape-1" width="20.083546015162973" opacity="0.7626783490264583" transform="matrix(0.9682057671610281,0.2501551367374354,-0.2501551367374354,0.9682057671610281,692.9108297052478,-258.0649821371599)" fill="#00a19d"></use><use xlink:href="#bbburst-shape-4" width="17.224006832587555" opacity="0.7829537108248426" transform="matrix(0.9988301338133683,-0.04835663125538006,0.04835663125538006,0.9988301338133683,616.2116291700428,-248.0318650221761)" fill="#2c2891"></use><use xlink:href="#bbburst-shape-1" width="41.753496107507864" opacity="0.2559927996534329" transform="matrix(0.9615620080308264,0.2745878815820631,-0.2745878815820631,0.9615620080308264,263.3013425532898,11.084130365348926)" fill="#ffbd9b"></use><use xlink:href="#bbburst-shape-11" width="28.13324869742846" opacity="0.3701921605352123" transform="matrix(0.739497855832413,0.6731589123076835,-0.6731589123076835,0.739497855832413,431.0153836041451,-259.05121562709064)" fill="none" stroke="#00a19d"></use><use xlink:href="#bbburst-shape-10" width="10.54577631352083" opacity="0.8836730992600426" transform="matrix(0.9926456165520283,0.12105651547952079,-0.12105651547952079,0.9926456165520283,823.8726875975032,-282.984544328737)" fill="none" stroke="#2c2891"></use><use xlink:href="#bbburst-shape-4" width="35.014050852366864" opacity="0.5422302355280622" transform="matrix(0.8561049833620207,0.5168019518758751,-0.5168019518758751,0.8561049833620207,746.8964451403602,35.340212577701664)" fill="#00a19d"></use><use xlink:href="#bbburst-shape-1" width="20.30099519360184" opacity="0.833165040777208" transform="matrix(0.9217369299766585,0.3878157190176858,-0.3878157190176858,0.9217369299766585,844.037664532179,-240.3708126839914)" fill="#ffa6d5"></use><use xlink:href="#bbburst-shape-4" width="12.939569656804423" opacity="0.8794805726882825" transform="matrix(0.9979438837455228,0.06409371962136697,-0.06409371962136697,0.9979438837455228,699.5391374442704,-385.0565851348834)" fill="#ffa6d5"></use><use xlink:href="#bbburst-shape-13" width="23.252963255874104" opacity="0.7188891603614642" transform="matrix(0.8068060524960936,-0.590816378966994,0.590816378966994,0.8068060524960936,487.4211900122308,-42.81218100107924)" fill="none" stroke="#00a19d"></use><use xlink:href="#bbburst-shape-13" width="49.078707151537" opacity="0.3255169990520729" transform="matrix(0.7582988320682384,-0.651907110932183,0.651907110932183,0.7582988320682384,-136.75049762804056,-136.39329332332935)" fill="none" stroke="#ffa6d5"></use><use xlink:href="#bbburst-shape-10" width="10.817527533989974" opacity="0.8674483166422832" transform="matrix(0.9944015489268225,0.10566721105402661,-0.10566721105402661,0.9944015489268225,735.5374030474429,-312.9042758706697)" fill="none" stroke="#2c2891"></use><use xlink:href="#bbburst-shape-13" width="46.97025882108173" opacity="0.21117412487393505" transform="matrix(0.9854730657799686,0.1698317891981051,-0.1698317891981051,0.9854730657799686,609.7379384004388,354.814535952269)" fill="none" stroke="#ffa6d5"></use><use xlink:href="#bbburst-shape-1" width="11.646368753410611" opacity="0.8905469230202152" transform="matrix(0.7832738089043214,0.6216768777142324,-0.6216768777142324,0.7832738089043214,940.4280797415624,-281.81725989263623)" fill="#ffbd9b"></use><use xlink:href="#bbburst-shape-10" width="28.689093251565943" opacity="0.6185321744867962" transform="matrix(0.940182618107153,-0.34067087431886406,0.34067087431886406,0.940182618107153,469.05356890469903,-35.49696874543997)" fill="none" stroke="#00a19d"></use><use xlink:href="#bbburst-shape-4" width="60.537926558420054" opacity="0.16535685416738677" transform="matrix(0.8659953997998381,0.5000519648251756,-0.5000519648251756,0.8659953997998381,368.2181370591924,212.90298798811563)" fill="#ffbd9b"></use><use xlink:href="#bbburst-shape-11" width="19.29505796900191" opacity="0.7304679326776153" transform="matrix(0.982550436730836,-0.18599634211468624,0.18599634211468624,0.982550436730836,453.2090370243977,-331.90088287202616)" fill="none" stroke="#ffa6d5"></use><use xlink:href="#bbburst-shape-10" width="9.598564062426068" opacity="0.9606737911149464" transform="matrix(0.9601600939159187,-0.2794505216516409,0.2794505216516409,0.9601600939159187,655.6862820919866,-355.03314961104206)" fill="none" stroke="#ffa6d5"></use><use xlink:href="#bbburst-shape-10" width="34.56047477716003" opacity="0.5037851208782951" transform="matrix(0.8117985261134779,-0.5839376276623941,0.5839376276623941,0.8117985261134779,100.03769215257256,-110.66710373695366)" fill="none" stroke="#2c2891"></use><use xlink:href="#bbburst-shape-11" width="24.553460795891205" opacity="0.5049909770441343" transform="matrix(0.9509052157072678,0.3094822624007949,-0.3094822624007949,0.9509052157072678,419.15289350117945,-340.6227514501391)" fill="none" stroke="#ffa6d5"></use><use xlink:href="#bbburst-shape-1" width="5.212712431085087" opacity="0.9799035041395673" transform="matrix(0.7162040967482369,0.6978908881774013,-0.6978908881774013,0.7162040967482369,1067.7859257191562,-270.5859828498746)" fill="#ffbd9b"></use><use xlink:href="#bbburst-shape-10" width="10.054002522964801" opacity="0.8997696472194914" transform="matrix(0.9829178417263855,0.18404487609261014,-0.18404487609261014,0.9829178417263855,783.5159849258341,-341.2363432621362)" fill="none" stroke="#2c2891"></use><use xlink:href="#bbburst-shape-10" width="6.8951319678374094" opacity="0.9510179842921807" transform="matrix(0.9296726335668744,0.368386745685607,-0.368386745685607,0.9296726335668744,932.5253992912857,-325.55636251496026)" fill="none" stroke="#2c2891"></use><use xlink:href="#bbburst-shape-1" width="33.53195185780857" opacity="0.5843490782260099" transform="matrix(0.8823050369764749,-0.47067804466104135,0.47067804466104135,0.8823050369764749,227.02904652876202,-155.46823446163887)" fill="#00a19d"></use><use xlink:href="#bbburst-shape-1" width="30.606660880347313" opacity="0.6477809391950345" transform="matrix(0.854198107810957,0.5199476825721803,-0.5199476825721803,0.854198107810957,885.2231953708643,-14.890327697936812)" fill="#2c2891"></use><use xlink:href="#bbburst-shape-4" width="36.54902382731466" opacity="0.4985414940566131" transform="matrix(0.9750660124000115,0.2219150095472152,-0.2219150095472152,0.9750660124000115,385.54341861918795,-268.14851404866187)" fill="#ffa6d5"></use><use xlink:href="#bbburst-shape-10" width="27.594251373869792" opacity="0.5618200083831782" transform="matrix(0.8567577505776862,0.5157190677346177,-0.5157190677346177,0.8567577505776862,956.2312624274184,86.69003516164713)" fill="none" stroke="#00a19d"></use><use xlink:href="#bbburst-shape-11" width="5.05797763664242" opacity="0.9884044447469104" transform="matrix(0.864895171849452,0.5019525293406808,-0.5019525293406808,0.864895171849452,988.5149878554425,-341.607981418429)" fill="none" stroke="#ffa6d5"></use><use xlink:href="#bbburst-shape-10" width="9.300152730600637" opacity="0.9092768423753219" transform="matrix(0.845103115012376,-0.5346033342548274,0.5346033342548274,0.845103115012376,566.053459690453,-246.2857796869289)" fill="none" stroke="#00a19d"></use><use xlink:href="#bbburst-shape-1" width="26.388475159415595" opacity="0.4426179960156321" transform="matrix(0.9174839080705595,0.3977728980606563,-0.3977728980606563,0.9174839080705595,390.6231336400757,-338.5881161887333)" fill="#2c2891"></use><use xlink:href="#bbburst-shape-10" width="39.080953548397" opacity="0.3892498498161916" transform="matrix(0.9932738400540007,-0.11578894016433296,0.11578894016433296,0.9932738400540007,208.31806478896488,-84.58815358296272)" fill="none" stroke="#00a19d"></use><use xlink:href="#bbburst-shape-4" width="30.62495821651088" opacity="0.7117585441065929" transform="matrix(0.9813558554424271,0.19219959674479586,-0.19219959674479586,0.9813558554424271,737.7303303746703,-135.30802916423858)" fill="#2c2891"></use><use xlink:href="#bbburst-shape-11" width="32.404079598740104" opacity="0.3974999225270691" transform="matrix(0.9625958266285792,-0.2709414596499438,0.2709414596499438,0.9625958266285792,542.7324785399425,206.54542350779394)" fill="none" stroke="#ff5c58"></use><use xlink:href="#bbburst-shape-4" width="22.469621320876403" opacity="0.7416084509621146" transform="matrix(0.9351623147366511,0.3542194871776378,-0.3542194871776378,0.9351623147366511,691.9325243179655,-280.4056455962653)" fill="#2c2891"></use><use xlink:href="#bbburst-shape-11" width="14.854537640434296" opacity="0.8884675557328164" transform="matrix(0.9968463062736731,0.07935642172209065,-0.07935642172209065,0.9968463062736731,752.367635082917,-314.3280183677758)" fill="none" stroke="#2c2891"></use><use xlink:href="#bbburst-shape-11" width="29.316177303607763" opacity="0.6076930439354822" transform="matrix(0.9335637146975193,-0.35841148223817926,0.35841148223817926,0.9335637146975193,383.258689334472,-74.35640636781233)" fill="none" stroke="#2c2891"></use><use xlink:href="#bbburst-shape-1" width="43.72409654806019" opacity="0.49273112074383907" transform="matrix(0.7891868234981945,-0.614153203701511,0.614153203701511,0.7891868234981945,118.37063772557792,-15.898501621053981)" fill="#2c2891"></use><use xlink:href="#bbburst-shape-4" width="50.46206512412313" opacity="0.3813325544412013" transform="matrix(0.9201192767712629,-0.39163824700088745,0.39163824700088745,0.9201192767712629,233.48232503542994,124.82501871781403)" fill="#00a19d"></use><use xlink:href="#bbburst-shape-10" width="7.934162288451285" opacity="0.9330105109109318" transform="matrix(0.9984005117224722,-0.056536874624491945,0.056536874624491945,0.9984005117224722,708.3909188264754,-383.066601328996)" fill="none" stroke="#2c2891"></use><use xlink:href="#bbburst-shape-10" width="19.860867782517147" opacity="0.5621481674049428" transform="matrix(0.9430796690368454,0.3325668922928952,-0.3325668922928952,0.9430796690368454,487.3334670068951,-344.0374146865899)" fill="none" stroke="#ffa6d5"></use><use xlink:href="#bbburst-shape-10" width="15.11797416504669" opacity="0.8598814570586059" transform="matrix(0.7413731690229556,0.6710930071553869,-0.6710930071553869,0.7413731690229556,935.6277397810227,-242.86845265046242)" fill="none" stroke="#00a19d"></use><use xlink:href="#bbburst-shape-4" width="12.710149750387119" opacity="0.7799889378089884" transform="matrix(0.7263835361378992,0.6872895739263046,-0.6872895739263046,0.7263835361378992,852.067463434709,-266.92964824334024)" fill="#ffbd9b"></use></svg>